<svg xmlns="http://www.w3.org/2000/svg" version="1.1" xmlns:xlink="http://www.w3.org/1999/xlink" xmlns:svgjs="http://svgjs.dev/svgjs" width="1000" height="1000" viewBox="0 0 1000 1000"><rect width="1000" height="1000" fill="#ffffff"></rect><g transform="matrix(0.7,0,0,0.7,149.57575757575756,368.7288174640793)"><svg viewBox="0 0 396 149" data-background-color="#ffffff" preserveAspectRatio="xMidYMid meet" height="376" width="1000" xmlns="http://www.w3.org/2000/svg" xmlns:xlink="http://www.w3.org/1999/xlink"><defs></defs><g id="tight-bounds" transform="matrix(1,0,0,1,0.2400000000000091,-0.18614314478359972)"><svg viewBox="0 0 395.52 149.37228980947899" height="149.37228980947899" width="395.52"><g><svg viewBox="0 0 397.4975999999999 150.11915125852636" height="149.37228980947899" width="395.52"><g><rect width="397.4975999999999" height="4.597951331022531" x="0" y="82.4988862169554" fill="#000000" opacity="1" stroke-width="0" stroke="transparent" fill-opacity="1" class="rect-o-0" data-fill-palette-color="secondary" rx="1%" id="o-0" data-palette-color="#adbfb8"></rect></g><g transform="matrix(1,0,0,1,0.9887999999999693,99.13335935693743)"><svg viewBox="0 0 395.52 50.98579190158892" height="50.98579190158892" width="395.52"><g><svg viewBox="0 0 395.52 50.98579190158892" height="50.98579190158892" width="395.52"><g><svg viewBox="0 0 395.52 50.98579190158892" height="50.98579190158892" width="395.52"><g transform="matrix(1,0,0,1,0,0)"><svg width="395.52" viewBox="0.08000000566244125 -34.400001525878906 312.1200256347656 40.2400016784668" height="50.98579190158892" data-palette-color="#31c48d"><path d="M15.4-27.38Q17.8-28.4 20.24-29.02 22.68-29.64 23.68-29.64L23.68-29.64Q25-29.64 25.04-29.16L25.04-29.16 25.08-29Q24.24-29 23.64-28.34 23.04-27.68 22.48-25.72L22.48-25.72Q21.84-23.28 21.36-20.54 20.88-17.8 20.82-17.52 20.76-17.24 20.7-16.82 20.64-16.4 20.56-16.04L20.56-16.04Q27.6-16.64 29.92-16.76L29.92-16.76Q31.2-23.4 33.12-27.78 35.04-32.16 36.76-32.16L36.76-32.16Q37.4-32.16 37.4-31.52L37.4-31.52Q34.76-25.72 33.34-19.82 31.92-13.92 31.14-8.34 30.36-2.76 30.36 1.12L30.36 1.12Q30.36 1.68 29.8 1.68L29.8 1.68Q28.4 1.68 28.4-1.52L28.4-1.52Q28.4-8.28 29.68-15.76L29.68-15.76Q25.8-15.32 23.62-15.02 21.44-14.72 20.32-14.6L20.32-14.6Q18.6-5.16 16.48-1.52L16.48-1.52Q15.48 0.2 14.2 1.68L14.2 1.68Q11.6 4.64 7.36 4.64L7.36 4.64Q4.24 4.64 2.34 2.88 0.44 1.12 0.16-1.4L0.16-1.4Q0.08-2.24 0.08-3.5 0.08-4.76 0.54-6.86 1-8.96 2.74-10.72 4.48-12.48 6.72-12.48L6.72-12.48Q7.32-12.48 7.68-12.12 8.04-11.76 8.16-11.04L8.16-11.04Q4.52-11.04 2.48-7.48L2.48-7.48Q1.12-5.16 1.12-2.84L1.12-2.84Q1.12-1.6 1.52-0.32L1.52-0.32Q2.64 3.24 6.76 3.24L6.76 3.24Q10.76 3.24 13.12-0.96L13.12-0.96Q14.6-3.64 15.4-6.32L15.4-6.32Q16.52-10.16 17.36-14.24L17.36-14.24Q16.08-14.08 15.08-14.08 14.08-14.08 13.92-15.08L13.92-15.08Q13.76-15.84 14.24-16L14.24-16Q14.28-16.04 14.36-16.04L14.36-16.04Q14.52-15.76 15.3-15.76 16.08-15.76 17.72-15.88L17.72-15.88Q18.48-19.52 18.92-21.38 19.36-23.24 20.24-25.46 21.12-27.68 22.12-28.64L22.12-28.64Q18.44-27.96 15.24-26.08L15.24-26.08Q13.6-25.12 12.56-23.72 11.52-22.32 11.52-20.8L11.52-20.8Q11.52-19.76 12.32-19.76L12.32-19.76Q12.16-19.2 11.44-19.2 10.72-19.2 10.18-19.76 9.64-20.32 9.64-21.32L9.64-21.32Q9.64-23.08 11.32-24.72 13-26.36 15.4-27.38ZM40.96 0.36L40.96 0.36Q36.04 0.36 36.04-6.4L36.04-6.4Q36.04-10.2 37.96-14L37.96-14Q40.4-18.8 43.76-18.8L43.76-18.8Q44.24-18.8 44.56-18.56 44.88-18.32 45-17.84L45-17.84Q42.48-17.84 40.64-13.8 38.8-9.76 38.8-5.84L38.8-5.84Q38.8-1.08 41.4-1.08L41.4-1.08Q42.88-1.08 44.48-3.34 46.08-5.6 47.14-9.28 48.2-12.96 48.2-16.68L48.2-16.68 48.2-17.16Q46.96-17.96 46.16-19.16 45.36-20.36 45.36-20.92 45.36-21.48 45.86-21.98 46.36-22.48 46.88-22.48L46.88-22.48Q47.64-22.48 48.36-21.12 49.08-19.76 49.36-18.04L49.36-18.04Q50.6-17.2 51.54-17.2 52.48-17.2 53.04-17.52L53.04-17.52Q53.04-16.96 52.64-16.52 52.24-16.08 51.4-16.08 50.56-16.08 49.48-16.48L49.48-16.48Q49.44-12.64 48.32-8.76 47.2-4.88 45.2-2.26 43.2 0.36 40.96 0.36ZM65.31-11.48L65.31-11.48Q63.8-11.48 63.8-14.8L63.8-14.8Q63.8-16.68 64.52-18.32L64.52-18.32Q61.8-15.96 58.44-9.54 55.07-3.12 55.07-1.16L55.07-1.16Q55.07-0.68 54.44-0.68L54.44-0.68Q53.27-0.68 53.27-3.84L53.27-3.84Q53.27-9.8 54.48-14.64 55.67-19.48 57.39-19.48L57.39-19.48Q58.16-19.48 58.16-18.6L58.16-18.6Q56.31-12.76 55.52-6.64L55.52-6.64 55.8-6.64Q59.03-14.12 62.95-18.32L62.95-18.32Q65.19-20.72 67.03-20.72L67.03-20.72Q67.44-20.72 67.69-20.48 67.95-20.24 67.95-19.88L67.95-19.88Q67.67-19.6 67.28-19.04 66.88-18.48 66.19-16.38 65.52-14.28 65.52-11.8L65.52-11.8Q65.52-11.48 65.31-11.48ZM70.63-6.48L70.99-6.48Q76.15-19.24 81.03-19.24L81.03-19.24Q83.07-19.24 83.07-17.28L83.07-17.28Q82.79-16.36 82.35-14.86 81.91-13.36 81.17-9.48 80.43-5.6 80.43-2.68L80.43-2.68Q80.43 1.56 81.67 1.56L81.67 1.56Q82.15 1.56 82.59 1.18 83.03 0.8 83.19 0.8L83.19 0.8Q83.75 0.8 83.19 1.68L83.19 1.68Q82.99 1.96 82.45 2.44 81.91 2.92 81.35 2.92L81.35 2.92Q79.83 2.92 78.97 0.74 78.11-1.44 78.11-4.92L78.11-4.92Q78.11-10.44 79.83-17.04L79.83-17.04Q79.99-17.56 79.51-17.56L79.51-17.56Q79.19-17.56 78.79-17.24L78.79-17.24Q76.87-15.56 74.75-11.68 72.63-7.8 71.43-4.74 70.23-1.68 70.23-1.18 70.23-0.68 69.67-0.68L69.67-0.68Q68.39-0.68 68.39-3.84L68.39-3.84Q68.39-9.8 69.61-14.64 70.83-19.48 72.55-19.48L72.55-19.48Q73.27-19.48 73.27-18.6L73.27-18.6Q71.43-12.64 70.63-6.48L70.63-6.48ZM96.27-19.4L96.27-19.4Q99.31-19.4 99.31-15.84L99.31-15.84Q99.31-13.8 97.95-11.56L97.95-11.56Q95.63-7.84 91.79-7.84L91.79-7.84Q91.19-7.84 90.79-8.04 90.39-8.24 90.19-8.64L90.19-8.64Q93.03-8.64 95.39-11.92L95.39-11.92Q97.31-14.56 97.31-16.76L97.31-16.76Q97.31-18.4 95.99-18.4L95.99-18.4Q93.35-18.4 91.07-14.28L91.07-14.28Q88.63-9.8 88.63-5.08L88.63-5.08Q88.63-1.08 90.91-0.28L90.91-0.28Q91.35-0.12 92.03-0.12 92.71-0.12 93.47-0.46 94.23-0.8 94.75-1.28L94.75-1.28Q95.79-2.24 96.47-3.4L96.47-3.4Q96.63-3.72 97.07-3.72L97.07-3.72Q97.79-3.72 97.75-3.48L97.75-3.48Q97.63-3.04 96.85-2 96.07-0.96 95.41-0.34 94.75 0.28 93.69 0.78 92.63 1.28 91.55 1.28L91.55 1.28Q87.31 1.28 86.15-2.72L86.15-2.72Q85.79-4.08 85.79-5.52L85.79-5.52Q85.79-8.2 87.03-11.36L87.03-11.36Q88.99-16.16 92.43-18.28L92.43-18.28Q94.31-19.4 96.27-19.4ZM103.75-17.32L103.75-17.32Q102.19-17.32 102.19-18.6L102.19-18.6Q102.19-19.08 102.59-19.2L102.59-19.2Q102.63-19.24 102.71-19.24L102.71-19.24Q102.95-18.96 103.61-18.96 104.27-18.96 105.71-19.04L105.71-19.04Q107.59-24.12 109.31-24.12L109.31-24.12Q109.99-24.12 109.99-23.36L109.99-23.36Q109.35-21.76 108.55-19.24L108.55-19.24Q112.51-19.68 113.71-19.68L113.71-19.68Q114.03-19.68 114.03-19.36L114.03-19.36Q114.03-18.72 113.19-18.72L113.19-18.72Q112.75-18.72 108.11-17.88L108.11-17.88Q104.95-7.88 104.95-1.68 104.95 4.52 107.43 4.52L107.43 4.52Q108.43 4.52 109.31 3.66 110.19 2.8 110.55 1.96L110.55 1.96Q110.71 1.52 111.23 1.72L111.23 1.72Q111.47 1.8 111.39 1.96L111.39 1.96Q111.15 2.48 110.79 3.16 110.43 3.84 109.39 4.84 108.35 5.84 107.27 5.84L107.27 5.84Q102.51 5.84 102.51-2.44L102.51-2.44Q102.51-9.44 105.11-17.4L105.11-17.4Q104.55-17.32 103.75-17.32ZM149.54-27.28L149.54-27.28Q149.54-29.72 147.62-29.72L147.62-29.72Q145.06-29.72 142.24-25.42 139.42-21.12 137.46-15.74 135.5-10.36 134.2-6.08 132.9-1.8 132.9-1.28 132.9-0.76 132.34-0.76L132.34-0.76Q131.14-0.76 131.14-3.96L131.14-3.96Q131.14-11.68 132.88-18.96 134.62-26.24 136.74-28.68L136.74-28.68Q131.02-27.88 127.46-24.64L127.46-24.64Q125.42-22.84 125.42-20.72L125.42-20.72Q125.42-19.68 126.22-19.68L126.22-19.68Q126.06-19.12 125.34-19.12 124.62-19.12 124.08-19.68 123.54-20.24 123.54-21.24L123.54-21.24Q123.54-23.6 126.4-25.62 129.26-27.64 132.58-28.62 135.9-29.6 138.22-29.6L138.22-29.6Q138.86-29.6 138.86-28.96L138.86-28.96Q136.34-23.12 134.14-11.28L134.14-11.28 134.46-11.28Q136.82-18.64 139.94-24.28L139.94-24.28Q141.62-27.36 143.66-29.14 145.7-30.92 147.82-30.92L147.82-30.92Q152.14-30.92 152.14-26.28L152.14-26.28Q152.14-23.48 150.18-20.04L150.18-20.04Q147.7-15.64 143.94-13.8L143.94-13.8Q141.94-12.8 139.94-12.8L139.94-12.8Q139.46-12.8 139.2-13.08 138.94-13.36 138.86-13.88L138.86-13.88Q142.62-13.88 145.98-18.36L145.98-18.36Q148.74-22 149.38-25.8L149.38-25.8Q149.54-26.6 149.54-27.28ZM154.54 0.36L154.54 0.36Q149.62 0.36 149.62-6.4L149.62-6.4Q149.62-10.2 151.54-14L151.54-14Q153.98-18.8 157.34-18.8L157.34-18.8Q157.82-18.8 158.14-18.56 158.46-18.32 158.58-17.84L158.58-17.84Q156.06-17.84 154.22-13.8 152.38-9.76 152.38-5.84L152.38-5.84Q152.38-1.08 154.98-1.08L154.98-1.08Q156.46-1.08 158.06-3.34 159.66-5.6 160.72-9.28 161.78-12.96 161.78-16.68L161.78-16.68 161.78-17.16Q160.54-17.96 159.74-19.16 158.94-20.36 158.94-20.92 158.94-21.48 159.44-21.98 159.94-22.48 160.46-22.48L160.46-22.48Q161.22-22.48 161.94-21.12 162.66-19.76 162.94-18.04L162.94-18.04Q164.18-17.2 165.12-17.2 166.06-17.2 166.62-17.52L166.62-17.52Q166.62-16.96 166.22-16.52 165.82-16.08 164.98-16.08 164.14-16.08 163.06-16.48L163.06-16.48Q163.02-12.64 161.9-8.76 160.78-4.88 158.78-2.26 156.78 0.36 154.54 0.36ZM187.86-18.12L187.86-18.12Q189.02-17.24 190.08-17.24 191.14-17.24 191.58-17.52L191.58-17.52Q191.58-17 191.12-16.54 190.66-16.08 189.8-16.08 188.94-16.08 187.94-16.48L187.94-16.48Q187.86-12.72 186.7-8.78 185.54-4.84 183.7-2.18 181.86 0.48 180.06 0.48 178.26 0.48 177.3-0.92L177.3-0.92Q176.3-2.48 176.3-5.36L176.3-5.36Q176.3-7 176.5-8.88L176.5-8.88Q171.54 0 168.88 0 166.22 0 166.22-4.48L166.22-4.48Q166.22-9.12 168.5-14.4L168.5-14.4Q170.42-18.6 172.02-18.8L172.02-18.8Q172.78-18.8 172.78-17.96L172.78-17.96Q172.3-16.8 171.58-14.98 170.86-13.16 169.68-9.16 168.5-5.16 168.5-3.26 168.5-1.36 169.34-1.36L169.34-1.36Q170.38-1.36 172.6-4.72 174.82-8.08 176.5-11.44L176.5-11.44 178.22-14.76Q179.34-17 180.22-17 181.1-17 181.1-16.16L181.1-16.16Q178.66-7.8 178.66-3.08L178.66-3.08Q178.66-0.88 179.94-0.88L179.94-0.88Q181.38-0.88 182.96-3.26 184.54-5.64 185.6-9.46 186.66-13.28 186.66-17L186.66-17 186.66-17.24Q185.5-18.08 184.78-19.24 184.06-20.4 184.06-20.98 184.06-21.56 184.58-22.04 185.1-22.52 185.7-22.52L185.7-22.52Q186.46-22.52 187.06-21.18 187.66-19.84 187.86-18.12ZM201.78-19.4L201.78-19.4Q204.81-19.4 204.81-15.84L204.81-15.84Q204.81-13.8 203.46-11.56L203.46-11.56Q201.14-7.84 197.3-7.84L197.3-7.84Q196.7-7.84 196.3-8.04 195.9-8.24 195.7-8.64L195.7-8.64Q198.53-8.64 200.9-11.92L200.9-11.92Q202.81-14.56 202.81-16.76L202.81-16.76Q202.81-18.4 201.5-18.4L201.5-18.4Q198.86-18.4 196.58-14.28L196.58-14.28Q194.14-9.8 194.14-5.08L194.14-5.08Q194.14-1.08 196.42-0.28L196.42-0.28Q196.86-0.12 197.53-0.12 198.22-0.12 198.98-0.46 199.74-0.8 200.25-1.28L200.25-1.28Q201.3-2.24 201.98-3.4L201.98-3.4Q202.14-3.72 202.58-3.72L202.58-3.72Q203.3-3.72 203.25-3.48L203.25-3.48Q203.14-3.04 202.36-2 201.58-0.96 200.92-0.34 200.25 0.28 199.2 0.78 198.14 1.28 197.06 1.28L197.06 1.28Q192.81 1.28 191.66-2.72L191.66-2.72Q191.3-4.08 191.3-5.52L191.3-5.52Q191.3-8.2 192.53-11.36L192.53-11.36Q194.5-16.16 197.94-18.28L197.94-18.28Q199.81-19.4 201.78-19.4ZM219.61-11.48L219.61-11.48Q218.09-11.48 218.09-14.8L218.09-14.8Q218.09-16.68 218.81-18.32L218.81-18.32Q216.09-15.96 212.73-9.54 209.37-3.12 209.37-1.16L209.37-1.16Q209.37-0.68 208.73-0.68L208.73-0.68Q207.57-0.68 207.57-3.84L207.57-3.84Q207.57-9.8 208.77-14.64 209.97-19.48 211.69-19.48L211.69-19.48Q212.45-19.48 212.45-18.6L212.45-18.6Q210.61-12.76 209.81-6.64L209.81-6.64 210.09-6.64Q213.33-14.12 217.25-18.32L217.25-18.32Q219.49-20.72 221.33-20.72L221.33-20.72Q221.73-20.72 221.99-20.48 222.25-20.24 222.25-19.88L222.25-19.88Q221.97-19.6 221.57-19.04 221.17-18.48 220.49-16.38 219.81-14.28 219.81-11.8L219.81-11.8Q219.81-11.48 219.61-11.48ZM239.57-20.44L239.57-20.44Q239.57-17.6 241.25-17.32L241.25-17.32Q241.13-16.76 240.33-16.76L240.33-16.76Q238.69-16.76 238.01-18.72L238.01-18.72Q237.69-19.64 237.69-20.96 237.69-22.28 238.73-24.16L238.73-24.16Q241.13-28.52 247.53-29.8L247.53-29.8Q249.81-30.24 252.53-30.24 255.25-30.24 257.47-30.88 259.69-31.52 260.75-32.32 261.81-33.12 262.75-33.76 263.69-34.4 264.31-34.4 264.93-34.4 264.93-33.84L264.93-33.84Q264.93-32.52 262.33-31.16 259.73-29.8 255.57-29.4L255.57-29.4Q253.85-28.48 252.89-22.88L252.89-22.88Q251.81-16.44 251.09-12.36 250.37-8.28 249.39-5.38 248.41-2.48 247.17-0.26 245.93 1.96 243.91 3.3 241.89 4.64 239.19 4.64 236.49 4.64 234.81 2.88L234.81 2.88Q232.97 0.96 232.97-2.32L232.97-2.32Q232.97-7.8 235.89-10.72L235.89-10.72Q237.65-12.48 239.81-12.48L239.81-12.48Q240.33-12.48 240.67-12.24 241.01-12 241.13-11.52L241.13-11.52Q237.73-11.52 235.61-8L235.61-8Q234.05-5.4 234.05-2.6L234.05-2.6Q234.05 2 237.21 3L237.21 3Q237.93 3.24 238.77 3.24L238.77 3.24Q241.25 3.24 243.11 1.2 244.97-0.84 245.95-3.96 246.93-7.08 247.83-10.98 248.73-14.88 249.33-18.4 249.93-21.92 250.95-24.98 251.97-28.04 253.29-29.28L253.29-29.28 252.49-29.28Q244.29-29.28 241.05-24.68L241.05-24.68Q239.57-22.6 239.57-20.44ZM261.41 0.36L261.41 0.36Q256.49 0.36 256.49-6.4L256.49-6.4Q256.49-10.2 258.41-14L258.41-14Q260.85-18.8 264.21-18.8L264.21-18.8Q264.69-18.8 265.01-18.56 265.33-18.32 265.45-17.84L265.45-17.84Q262.93-17.84 261.09-13.8 259.25-9.76 259.25-5.84L259.25-5.84Q259.25-1.08 261.85-1.08L261.85-1.08Q263.33-1.08 264.93-3.34 266.53-5.6 267.59-9.28 268.65-12.96 268.65-16.68L268.65-16.68 268.65-17.16Q267.41-17.96 266.61-19.16 265.81-20.36 265.81-20.92 265.81-21.48 266.31-21.98 266.81-22.48 267.33-22.48L267.33-22.48Q268.09-22.48 268.81-21.12 269.53-19.76 269.81-18.04L269.81-18.04Q271.05-17.2 271.99-17.2 272.93-17.2 273.49-17.52L273.49-17.52Q273.49-16.96 273.09-16.52 272.69-16.08 271.85-16.08 271.01-16.08 269.93-16.48L269.93-16.48Q269.89-12.64 268.77-8.76 267.65-4.88 265.65-2.26 263.65 0.36 261.41 0.36ZM277.92 0.36L277.92 0.36Q273 0.36 273-6.4L273-6.4Q273-10.2 274.92-14L274.92-14Q277.36-18.8 280.72-18.8L280.72-18.8Q281.2-18.8 281.52-18.56 281.84-18.32 281.96-17.84L281.96-17.84Q279.44-17.84 277.6-13.8 275.76-9.76 275.76-5.84L275.76-5.84Q275.76-1.08 278.36-1.08L278.36-1.08Q279.84-1.08 281.44-3.34 283.04-5.6 284.1-9.28 285.16-12.96 285.16-16.68L285.16-16.68 285.16-17.16Q283.92-17.96 283.12-19.16 282.32-20.36 282.32-20.92 282.32-21.48 282.82-21.98 283.32-22.48 283.84-22.48L283.84-22.48Q284.6-22.48 285.32-21.12 286.04-19.76 286.32-18.04L286.32-18.04Q287.56-17.2 288.5-17.2 289.44-17.2 290-17.52L290-17.52Q290-16.96 289.6-16.52 289.2-16.08 288.36-16.08 287.52-16.08 286.44-16.48L286.44-16.48Q286.4-12.64 285.28-8.76 284.16-4.88 282.16-2.26 280.16 0.36 277.92 0.36ZM295.44 5.84L295.44 5.84Q293.12 5.84 292.02 3.4 290.92 0.96 290.92-3.92 290.92-8.8 292.36-15.48 293.8-22.16 295.74-26.56 297.68-30.96 299.12-30.96L299.12-30.96Q299.8-30.96 299.8-30.16L299.8-30.16Q298.96-28.24 297.68-24.38 296.4-20.52 295.54-17.24 294.68-13.96 293.98-9.56 293.28-5.16 293.28-2.02 293.28 1.12 293.9 2.82 294.52 4.52 295.6 4.52L295.6 4.52Q296.52 4.52 297.36 3.66 298.2 2.8 298.56 1.96L298.56 1.96Q298.76 1.52 299.28 1.72L299.28 1.72Q299.48 1.8 299.38 2.06 299.28 2.32 299.06 2.72 298.84 3.12 298.28 3.96L298.28 3.96Q297.08 5.84 295.44 5.84ZM302.92-1.36L302.92-1.36Q302.92 1.44 304.72 1.44L304.72 1.44Q306.4 1.44 307.86-1.32 309.32-4.08 309.32-8.28L309.32-8.28Q309.32-10.32 308.58-14.04 307.84-17.76 307.84-18.9 307.84-20.04 307.92-20.4L307.92-20.4Q307.4-19.56 304.92-14.82 302.44-10.08 300.52-7.32L300.52-7.32Q300.36-7.16 300.08-7.22 299.8-7.28 299.62-7.46 299.44-7.64 299.44-7.72 299.44-7.8 299.48-7.84L299.48-7.84Q301.36-10.56 303.86-15.34 306.36-20.12 308.04-22.48 309.72-24.84 311.36-24.84L311.36-24.84Q312.2-24.84 312.2-24.12L312.2-24.12Q312.2-23.64 311.52-22.84L311.52-22.84Q309.36-20.4 309.36-17.84L309.36-17.84Q309.36-16.32 310.52-11.98 311.68-7.64 311.68-5.68L311.68-5.68Q311.68-2.16 309.72 0.3 307.76 2.76 305.28 2.76L305.28 2.76Q301.76 2.76 301.76-1.28L301.76-1.28Q301.76-4.32 303.62-7.64 305.48-10.96 307.36-12.12L307.36-12.12Q307.72-12.36 307.82-11.84 307.92-11.32 307.68-11.16L307.68-11.16Q305.56-9.96 304-6.04L304-6.04Q302.92-3.28 302.92-1.36Z" opacity="1" transform="matrix(1,0,0,1,0,0)" fill="#000000" class="undefined-text-0" data-fill-palette-color="primary" id="text-0"></path></svg></g></svg></g></svg></g></svg></g><g transform="matrix(1,0,0,1,155.48517383910422,0)"><svg viewBox="0 0 86.52725232179151 70.46236440799589" height="70.46236440799589" width="86.52725232179151"><g><svg xmlns="http://www.w3.org/2000/svg" xmlns:xlink="http://www.w3.org/1999/xlink" version="1.1" x="8" y="0" viewBox="17.565250396728516 12.853002548217773 50.80373764038086 50.756996154785156" enable-background="new 0 0 80 80" xml:space="preserve" height="70.46236440799589" width="70.52725232179151" class="icon-icon-0" data-fill-palette-color="accent" id="icon-0"><g fill="#096a2e" data-fill-palette-color="accent"><path fill="#000000" d="M24.562 63.61c-1.87 0-3.628-0.728-4.95-2.05-2.729-2.73-2.729-7.17 0-9.9l14.116-14.116c-2.121-5.344-1.598-11.506 1.467-16.403 3.246-5.19 9.01-8.288 15.419-8.288 0.206 0 0.413 0.003 0.618 0.01 1.202 0.039 2.265 0.786 2.707 1.904 0.442 1.117 0.18 2.387-0.669 3.236l-8.178 8.176c-0.403 0.403-0.403 1.061 0.001 1.465l8.435 8.435c0.391 0.391 1.074 0.391 1.465 0l8.213-8.213c0.569-0.569 1.321-0.883 2.119-0.883 1.606 0 2.933 1.258 3.019 2.864 0.269 5.092-1.644 10.078-5.246 13.68-3.397 3.398-7.916 5.27-12.723 5.27 0 0 0 0-0.001 0-2.319 0-4.636-0.454-6.777-1.321L29.512 61.56C28.19 62.882 26.433 63.61 24.562 63.61zM48.637 16.979c-4.207 0.542-7.875 2.805-10.051 6.283-2.591 4.142-2.852 9.445-0.681 13.84l0.636 1.286-16.101 16.1c-1.169 1.17-1.169 3.073 0 4.243 1.133 1.132 3.11 1.133 4.243 0L42.77 42.646l1.292 0.652c1.941 0.98 4.125 1.498 6.313 1.498 3.738 0 7.252-1.455 9.895-4.098 2.231-2.231 3.629-5.146 4-8.24l-6.448 6.448c-0.951 0.951-2.216 1.475-3.561 1.475s-2.609-0.523-3.561-1.474l-8.436-8.436c-1.962-1.963-1.962-5.157-0.001-7.12L48.637 16.979z" data-fill-palette-color="accent"></path></g></svg></g></svg></g><g><rect width="78.95205383910424" height="4.597951331022531" y="64.86441307697336" x="242.01242616089573" fill="#000000" data-fill-palette-color="secondary"></rect><rect width="78.95205383910424" height="4.597951331022531" y="64.86441307697336" x="76.53311999999997" fill="#000000" data-fill-palette-color="secondary"></rect></g></svg></g></svg><rect width="395.52" height="149.37228980947899" fill="none" stroke="none" visibility="hidden"></rect></g></svg></g></svg>