<?xml version="1.0" encoding="UTF-8" standalone="no"?>
<svg xmlns:rdf="http://www.w3.org/1999/02/22-rdf-syntax-ns#" xmlns="http://www.w3.org/2000/svg" enable-background="new 0 0 397.152 463.291" xml:space="preserve" height="233.64" viewBox="0 0 200.5755 233.6435" width="200.58" version="1.1" y="0px" x="0px" xmlns:cc="http://creativecommons.org/ns#" xmlns:xlink="http://www.w3.org/1999/xlink" xmlns:dc="http://purl.org/dc/elements/1.1/"><defs><clipPath id="SVGID_4_"><use xlink:href="#SVGID_3_" height="100%" width="100%" y="0" x="0" overflow="visible"/></clipPath><path id="SVGID_3_" d="m280.68 102.05s60.001 48.953 61.494 138.92c1.483 89.955-61.494 89.955-61.494 89.955-48.983-20.473-88.971 29.802-167.26-5.786 0 0-62.684 2.051-66.389-86.39-3.721-88.483 69.332-136.7 69.332-136.7s36.585-31.794 81.167-31.794c44.603 0 83.154 31.794 83.154 31.794"/></defs><g transform="matrix(.5 0 0 .5 1.2744 .72557)"><path fill="#043927" d="m58.165 395.28c-35.935-41.96-58.161-99.84-58.165-163.65 0.004-63.8 22.23-121.67 58.165-163.63 35.923-41.953 85.605-68 140.42-68 54.81 0 104.49 26.047 140.41 68.001 35.933 41.96 58.153 99.832 58.158 163.63-0.005 63.808-22.226 121.69-58.158 163.66-35.92 41.958-85.6 68.003-140.41 68.003s-104.49-26.05-140.42-68.01z"/><g><path fill="#fff" d="m60.092 393.63c35.532 41.483 84.505 67.118 138.49 67.118 53.983 0 102.95-25.635 138.48-67.118 35.52-41.476 57.545-98.781 57.545-162 0-63.205-22.025-120.51-57.545-161.98s-84.49-67.108-138.48-67.108c-53.987 0-102.96 25.638-138.49 67.112-35.52 41.47-57.55 98.777-57.55 161.98 0 63.216 22.03 120.52 57.55 162z"/><path fill="#043927" d="m66.614 386.77c-33.745-39.79-54.596-94.67-54.601-155.14 0.004-60.47 20.856-115.32 54.601-155.11 33.736-39.776 80.436-64.512 131.97-64.506 51.525-0.005 98.228 24.73 131.97 64.508 33.752 39.788 54.611 94.643 54.616 155.11-0.005 60.475-20.864 115.35-54.616 155.14-33.74 39.792-80.438 64.528-131.97 64.528-51.539 0-98.236-24.736-131.97-64.528z"/><path fill="#fff" d="m69.521 384.3c33.144 39.071 78.775 63.182 129.06 63.182 50.274 0 95.912-24.11 129.06-63.182 33.14-39.06 53.72-93.08 53.72-152.67s-20.58-113.58-53.71-152.64c-33.15-39.061-78.79-63.164-129.07-63.164-50.289 0-95.926 24.104-129.06 63.163-33.127 39.061-53.692 93.051-53.692 152.64 0 59.592 20.565 113.61 53.693 152.67z"/></g><g fill="#043927"><path d="m276.24 341.02s-19.563-12.633-63.438 0.307c-33.693 9.972-67.322 7.879-89.286-2.633 0 0 21.398 23.167 77.542 13.827 27.855-4.66 42.727-15.805 75.182-11.501"/><path d="m268.95 356.4s-17.681-11.404-57.272 0.306c-30.396 8.961-60.757 7.086-80.573-2.386 0 0 19.325 20.899 69.982 12.465 25.163-4.19 38.571-14.262 67.863-10.385"/><path d="m82.046 231.66c0 75.718 52.267 137.34 116.48 137.34 64.234 0 116.5-61.625 116.5-137.34 0-75.737-52.264-137.34-116.5-137.34-64.213-0.001-116.48 61.605-116.48 137.34" clip-path="url(#SVGID_4_)"/></g><g><path fill="#fff" d="m214.43 294.59c0.001 0-7.1889 2.8047-18.254 2.8047s-17.084-2.5586-17.084-2.5586l2.9141 10.07s1.358 0.94019 5.2012 1.6152l8.1914 29.701 2.4102-0.43945 8.0586-29.334c3.8662-0.66785 5.541-1.543 5.541-1.543l3.0215-10.316z"/><path fill="#c4b581" d="m207.58 110.44c-12.289-0.0547-25.263 7.0282-32.047 17.238-6.9435 3.6932-11.774 8.2432-15.25 12.58-15.518 19.423-15.043 46.467 11.807 72.096 16.742 15.977 36.904 38.444 38.053 52.701 0.395 5.014 1.6296 20.563-18.691 20.891-9.041 0.129-20.789-8.0371-20.789-8.0371s10.923 13.299 27.344 12.432c13.503-0.7114 22.91-7.3677 28.178-15.854 8.2314-5.0468 15.354-14.119 19.023-21.432 10.671-21.287 7.0155-45.877-16.811-67.402-20.171-18.229-37.139-33.702-37.139-51.479 0-27.601 28.094-21.168 28.094-21.168-3.6795-1.7422-7.6875-2.5482-11.771-2.5664zm-33.371 19.438c-2.176 3.9327-3.4512 8.2492-3.4512 12.758 0 27.268 28.15 45.137 43.799 61.184 24.299 24.965 32.047 49.528 13.199 67.838 2.4249-4.9086 3.5756-10.243 3.4277-15.303-0.93-30.175-42.721-57.866-55.168-72.375-16.836-19.626-17.17-41.095-1.8066-54.102zm-19.062 101.41c-2.9307-0.038-6.1343 0.39501-9.6641 1.3223 14.814 4.485 16.226 25.56 24.408 34.691 11.091 12.369 26.094 15.134 34.197 5.9551-14.999 0.895-21.555-19.104-28.455-29.438-5.3542-8.0542-11.694-12.417-20.486-12.531z"/><path fill="#043927" d="m197.15 40.629c-0.465-0.023-0.66992 0.03889-0.66992 0.21289-0.036 0.228 0.1302 0.27344 0.4082 0.27344 0.328 0.023 0.71191 0.04172 1.0039 0.13672 0.598 0.14 0.86911 0.63403 0.91211 1.582 0.035 0.883 0.0165 1.6689-0.0606 5.8809l-0.0723 4.8926c-0.058 2.691-0.0981 4.8809-0.28907 6.0449-0.1 0.812-0.27226 1.2829-0.82226 1.3789-0.262 0.031-0.58342 0.10352-0.98243 0.10352-0.352-0.033-0.47656 0.06731-0.47656 0.19531 0 0.189 0.19013 0.28906 0.57813 0.28906 1.097 0.041 2.8562-0.023 3.4922 0 0.746 0 2.4895 0.1132 4.3125 0.1582 0.316 0.011 0.54101-0.0852 0.54101-0.2832 0-0.136-0.14459-0.20312-0.43359-0.20312-0.424-0.026-1.0179-0.07025-1.4199-0.15625-0.83401-0.136-1.0132-0.61424-1.0762-1.3652-0.091-1.208-0.05-3.3898 0-6.0918l0.0996-4.8906c0.093-4.229 0.11211-5.0078 0.16211-5.8828 0.075-0.991 0.30236-1.4556 1.0684-1.5586 0.352-0.064 0.57084-0.07227 0.83984-0.07227 0.273 0.008 0.42579-0.07025 0.42579-0.28125 0-0.149-0.20693-0.23047-0.54493-0.23047-1.069-0.022-2.7182 0.03977-3.4062 0.0098-0.824-0.011-2.5558-0.12558-3.5898-0.14258zm13.9 0.12695c-0.13337 0.0115-0.21873 0.06069-0.24023 0.17969-0.023 0.165 0.0439 0.26702 0.29492 0.29102 0.199 0.055 0.67041 0.11783 1.0664 0.29883 0.921 0.456 1.3418 0.81722 1.7148 2.4492l4.0059 17.908c0.297 1.369 0.37656 1.7936 0.72656 1.8496 0.394 0.076 0.64391-0.34016 1.6289-1.7852 0.834-1.278 2.639-4.0411 5.082-7.7441 2.042-3.094 3.0674-4.4487 4.5644-6.8477 1.048-1.607 1.5336-2.0184 1.9356-2.1914 0.552-0.261 1.1245-0.15661 1.3965-0.09961 0.265 0.054 0.44647 0.04522 0.48047-0.17578 0.04-0.186-0.17334-0.29247-0.52734-0.35547-0.809-0.115-2.1339-0.27875-2.5879-0.34375-0.367-0.064-1.511-0.35384-2.877-0.58984-0.517-0.064-0.76311-0.06556-0.78711 0.14844-0.043 0.177 0.14854 0.25288 0.39454 0.29688 0.369 0.064 0.77617 0.16803 1.0762 0.33203 0.252 0.128 0.32362 0.36241 0.26562 0.56641-0.04 0.261-0.21797 0.64738-0.41797 0.98438-0.969 1.688-6.0412 9.8752-7.7422 12.701l-0.11719-0.03125-2.5586-13.229c-0.22-1.048-0.31762-1.8666-0.26562-2.2266 0.046-0.239 0.17653-0.42516 0.39453-0.53516 0.235-0.121 0.6528-0.07472 1.0918-0.01172 0.246 0.042 0.43412 0.04308 0.45312-0.16992 0.028-0.185-0.25308-0.29361-0.58007-0.34961-1.384-0.243-2.71-0.37638-3.375-0.48438-0.961-0.175-2.5158-0.52006-3.9668-0.78906-0.215-0.032-0.39592-0.05837-0.5293-0.04687zm-24.168 0.0625c-0.12362-0.0125-0.28598 0.0097-0.45898 0.0332-1.335 0.238-2.3882 0.52041-2.6602 0.56641-0.586 0.101-1.9131 0.25228-3.3281 0.48828-0.424 0.093-0.7105 0.16558-0.6875 0.39258 0.034 0.158 0.16528 0.2202 0.48828 0.1582 0.373-0.071 1.0475-0.18808 1.4785-0.08008 0.698 0.157 1.0691 0.61697 1.3691 2.293l2.459 12.221-0.15625 0.03125c-0.54-0.364-4.9289-3.6387-7.0879-5.1797-4.711-3.254-9.6638-6.9783-10.049-7.2773-0.559-0.42-0.86816-0.71611-1.1602-0.66211-0.287 0.032-0.28636 0.45019-0.19336 0.99219l2.6191 16.236c0.398 2.36 0.42524 3.2049-0.25976 3.5449-0.352 0.155-0.85117 0.28075-1.2012 0.34375-0.268 0.054-0.42535 0.13564-0.40235 0.30664 0.038 0.228 0.30339 0.21374 0.65039 0.17774 1.416-0.273 2.6813-0.57061 2.9453-0.59961 0.522-0.121 1.6233-0.22169 3.4023-0.55469 0.396-0.052 0.64341-0.14795 0.56641-0.37695-0.014-0.166-0.19433-0.18091-0.48633-0.12891-0.437 0.063-0.96799 0.15245-1.459 0.06445-0.575-0.101-1.0775-0.75424-1.4785-2.8652l-2.3711-11.447h0.10351c0.582 0.418 4.2074 3.312 7.7344 5.707 3.342 2.329 7.4683 5.3187 9.4883 6.6387 0.36 0.245 0.74015 0.48902 1.0352 0.41602 0.246-0.021 0.30336-0.29244 0.19336-0.89844l-2.7637-17.312c-0.228-1.512-0.10405-2.1393 0.62695-2.4863 0.324-0.143 0.5396-0.18109 0.8086-0.24609 0.319-0.039 0.46498-0.15727 0.45898-0.32226-0.0165-0.1155-0.10098-0.16133-0.22461-0.17383zm52.357 5.7871c-0.11037-0.004-0.1807 0.0345-0.2207 0.125-0.052 0.211 0.0806 0.30434 0.39258 0.40234 0.338 0.157 0.77052 0.31322 0.97851 0.44922 0.802 0.518 0.84927 0.99011 0.57227 1.9121-0.257 0.85-0.51403 1.5662-1.957 5.5332l-1.6894 4.6113c-0.857 2.401-1.598 4.464-2.127 5.502-0.393 0.723-0.72434 1.2592-1.2773 1.1582-0.259-0.007-0.604-0.08808-1-0.20508-0.307-0.133-0.42405-0.10898-0.49805 0.04102-0.041 0.178 0.0974 0.32203 0.44336 0.45703 0.523 0.185 1.2079 0.36908 1.8379 0.58008 0.602 0.213 1.1868 0.41853 1.4668 0.51953 0.791 0.3 1.611 0.60745 2.709 1.0645 1.105 0.442 2.5322 1.0296 4.4902 1.7246 0.974 0.353 1.2244 0.45561 1.6504-0.15039 0.317-0.489 1.1639-2.1959 1.3789-2.7949 0.098-0.245 0.19257-0.45911-0.0234-0.53711-0.191-0.076-0.29092 0.02597-0.41992 0.29297-0.585 0.991-1.1064 1.4257-1.9024 1.5117-0.798 0.046-1.8666-0.35303-2.5586-0.58203-2.69-0.986-2.9306-1.527-2.3496-3.332 0.276-0.784 1.1593-3.1719 1.4863-4.0449l0.77148-2.0723c0.047-0.16 0.0917-0.25912 0.21875-0.20312 0.639 0.225 3.2264 1.201 3.6914 1.418 0.929 0.46 1.1629 0.96602 1.0859 1.541-0.023 0.409-0.17923 0.716-0.24023 1-0.052 0.125-0.0357 0.26269 0.1543 0.30469 0.232 0.087 0.34778-0.1872 0.42578-0.4082 0.063-0.181 0.51619-1.1968 0.74219-1.7148 0.581-1.278 0.83372-1.6577 0.88672-1.8047 0.059-0.188 0.001-0.25897-0.0898-0.29297-0.151-0.045-0.27769 0.03464-0.55469 0.18164-0.327 0.182-0.74215 0.11745-1.4102-0.06055-0.598-0.165-3.6269-1.2375-4.1699-1.4805-0.159-0.042-0.15813-0.15666-0.0781-0.34766l2.3828-6.5879c0.058-0.183 0.14693-0.25622 0.29493-0.19922 0.52199 0.199 3.2241 1.2368 3.6621 1.4648 1.248 0.613 1.3868 1.0293 1.4238 1.5723 0 0.348-0.12761 0.81538-0.22461 0.98438-0.065 0.239-0.0647 0.40298 0.11133 0.45898 0.19 0.064 0.29891-0.08626 0.37891-0.19726 0.175-0.302 0.62919-1.4255 0.74218-1.6855 0.531-1.157 0.77008-1.4164 0.83008-1.6074 0.046-0.133 0.0654-0.26606-0.0586-0.28906-0.142-0.056-0.32698-0.03164-0.45899-0.05664-0.23899-0.032-0.64868-0.10895-1.1797-0.25195-0.492-0.158-5.6957-2.0495-6.5527-2.3535-0.35-0.111-0.94304-0.36253-1.623-0.64453-0.646-0.221-1.394-0.52825-2.082-0.78125-0.20249-0.0745-0.35251-0.121-0.46289-0.125zm-83.043 0.7207c-0.10288-0.000875-0.24243 0.03683-0.41993 0.11133-0.98 0.432-2.575 1.1986-2.875 1.3066-0.027 0.009-1.6791 0.61578-2.9961 1.1758-0.355 0.174-0.4972 0.2877-0.4082 0.4707 0.053 0.181 0.2209 0.14811 0.5039 0.03711 0.283-0.114 0.72618-0.2705 0.95117-0.3125 0.945-0.178 1.3136 0.15819 1.7266 0.99219 0.394 0.789 0.71093 1.502 2.3359 5.416l1.3613 3.1758c1.107 2.643 1.9926 4.9824 1.1816 6.9824-0.587 1.451-1.834 2.4028-2.959 2.8828-0.887 0.346-2.0835 0.7642-3.6465 0.2832-1.675-0.478-3.0834-1.7243-4.6484-5.4473l-1.5-3.5781c-1.64-3.886-1.96-4.6285-2.25-5.4375-0.324-0.92-0.29935-1.433 0.34765-1.875 0.282-0.174 0.40732-0.25991 0.69532-0.37891 0.254-0.117 0.39626-0.23602 0.32226-0.41602-0.089-0.18-0.2822-0.14938-0.6582 0.01563-0.936 0.378-2.51 1.1502-3.125 1.4082-0.763 0.327-2.4156 0.91505-3.7676 1.498-0.374 0.165-0.54498 0.27584-0.45898 0.46484 0.06 0.178 0.23439 0.14755 0.52539 0.06055 0.369-0.18 0.79587-0.32838 1.0469-0.35938 0.909-0.165 1.2934 0.15224 1.6914 0.99024 0.418 0.795 0.7128 1.5053 2.3418 5.4023l1.5938 3.7344c1.564 3.727 3.3318 5.2001 5.1348 5.8301 2.573 0.906 5.0624-0.04086 6.4004-0.63086 1.687-0.709 3.4072-1.7615 4.5742-4.1035 1.369-2.729 0.38645-5.8725-0.81055-8.7285l-1.1719-2.7188c-1.638-3.896-1.9346-4.6062-2.2266-5.4492-0.332-0.929-0.31227-1.4516 0.30273-1.8496 0.309-0.183 0.44309-0.29311 0.74609-0.41211 0.29-0.124 0.43775-0.23483 0.34375-0.42383-0.036-0.078-0.1022-0.11631-0.20507-0.11719zm104.55 7.834c-0.10575-0.01713-0.17861 0.01311-0.22461 0.09961-0.095 0.172 0.032 0.30356 0.29101 0.47656 0.345 0.161 0.74063 0.43761 0.89063 0.59961 0.706 0.614 0.68653 1.1019 0.26953 1.9629-0.419 0.795-0.80225 1.4704-2.9062 5.1484l-2.4336 4.2129c-1.263 2.234-2.3606 4.1421-3.0586 5.0781-0.489 0.64-0.90961 1.0851-1.4746 0.91406-0.252-0.062-0.55243-0.18753-0.89844-0.39453-0.29999-0.171-0.43343-0.15802-0.52343-0.04102-0.076 0.185 0.0334 0.33525 0.35742 0.53125 0.968 0.541 2.514 1.3363 2.959 1.6133 0.386 0.21 2.1265 1.2894 3.5215 2.1094 0.298 0.173 0.51519 0.19548 0.61719 0.02148 0.074-0.117 0.0251-0.24889-0.17188-0.33789-0.297-0.178-0.79286-0.53516-1.1309-0.78516-0.655-0.505-0.51378-1.1492-0.17578-1.8652 0.445-1.089 1.5517-2.9847 2.8457-5.2227l0.19141-0.3457c0.075-0.134 0.19269-0.13389 0.30469-0.08789l2.0566 1.2793c0.17 0.095 0.2957 0.20244 0.3457 0.39844 0.093 0.537 0.26256 2.8273 0.47656 4.6953 0.277 2.623 0.54144 4.2912 1.2734 5.4492 0.415 0.675 0.95625 1.1655 2.2812 1.9355l2.2969 1.3145c0.302 0.165 0.48823 0.19762 0.61523 0.01563 0.046-0.118 0.0252-0.24714-0.17383-0.36914-0.189-0.111-0.39462-0.23817-0.64062-0.45117-0.32-0.292-1.1999-1.0165-1.7559-3.1875-0.566-2.323-0.98589-5.4018-1.5879-9.3398 3.558-0.572 5.2362-1.7875 6.2812-3.5605 0.916-1.625 0.668-3.3983 0.25-4.2363-0.769-1.636-2.3287-2.7227-3.8457-3.5957-0.741-0.41-2.6148-1.4126-3.4258-1.8926-0.488-0.265-1.9764-1.2-3.2734-1.959-0.178-0.102-0.31808-0.16647-0.42383-0.18359zm4.6992 4.2695c0.277 0.061 0.73012 0.29072 1.3281 0.63672 1.418 0.819 3.1184 3.1034 1.1484 6.5234-1.127 1.972-2.4777 2.69-3.5117 2.791-0.613 0.063-0.95455-0.01226-1.9356-0.57226-0.58-0.339-1.2563-0.81839-1.6973-1.2754-0.104-0.174-0.10289-0.30026 0.0371-0.57226l4.2129-7.3242c0.13-0.165 0.22997-0.25103 0.41797-0.20703zm-148.14 7.9805c-0.0451-0.02075-0.0933-0.01556-0.15429 0.02344-0.104 0.103-0.17672 0.25147-0.26172 0.35547-0.135 0.182-0.4781 0.49147-0.8711 0.85547-0.372 0.354-4.7391 3.7418-5.4531 4.2988-0.316 0.239-0.83288 0.60002-1.4219 1.041-0.532 0.41-1.1823 0.87184-1.7793 1.3398-0.345 0.274-0.45175 0.42522-0.34375 0.57422 0.122 0.147 0.28701 0.10192 0.54101-0.08008 0.303-0.246 0.69883-0.53005 0.92383-0.62305 0.815-0.401 1.2766-0.17408 1.8906 0.54492 0.584 0.651 1.066 1.2499 3.668 4.5879l2.9844 3.8672c1.588 2.014 2.925 3.7579 3.543 4.7559 0.387 0.705 0.66087 1.2784 0.29687 1.6934-0.152 0.206-0.39323 0.45138-0.74023 0.73438-0.244 0.188-0.29394 0.32245-0.21094 0.43945 0.136 0.129 0.33252 0.07681 0.60352-0.11719 0.439-0.354 0.98109-0.83347 1.4961-1.2305 0.506-0.431 1.0031-0.81605 1.2441-0.99805 0.645-0.523 1.3486-1.0331 2.3086-1.7031 0.966-0.716 2.2218-1.6127 3.8418-2.8867 0.843-0.645 1.0475-0.79742 0.77149-1.4824-0.247-0.519-1.2433-2.1649-1.6113-2.6699-0.192-0.218-0.34333-0.39995-0.48633-0.25195-0.175 0.121-0.14542 0.24472 0.0176 0.51172 0.522 1.016 0.62034 1.6767 0.27734 2.3887-0.385 0.706-1.2902 1.434-1.8652 1.873-2.247 1.726-2.8343 1.6851-4.0703 0.20312-0.521-0.618-2.0474-2.6602-2.6484-3.4062l-1.3457-1.7285c-0.098-0.14-0.13529-0.23231-0.0293-0.32031 0.532-0.41 2.6961-2.0955 3.1641-2.3555 0.887-0.552 1.4356-0.45575 1.8926-0.09375 0.276 0.236 0.52189 0.51198 0.71289 0.70898 0.077 0.101 0.18117 0.17388 0.32617 0.04687 0.197-0.157 0.0237-0.40222-0.11133-0.57422-0.109-0.134-0.72292-1.0803-1.0449-1.5273-0.788-1.182-0.98455-1.5979-1.0606-1.7559-0.129-0.112-0.22459-0.11139-0.30859-0.02539-0.118 0.064-0.11853 0.24569-0.14453 0.55469-0.019 0.354-0.2922 0.68186-0.7832 1.1309-0.462 0.442-2.9796 2.4042-3.4766 2.7812-0.118 0.088-0.21289 0.024-0.33789-0.125l-4.3027-5.5586c-0.133-0.152-0.15025-0.23741-0.0312-0.31641 0.444-0.354 2.7766-2.0855 3.1836-2.3555 1.194-0.714 1.611-0.62775 2.084-0.34375 0.311 0.171 0.62314 0.53441 0.74414 0.69141 0.171 0.183 0.27836 0.26125 0.44336 0.15625 0.144-0.133 0.0943-0.29102 0.0293-0.41602-0.177-0.292-0.87557-1.2912-1.0176-1.5352-0.72-1.07-0.81846-1.4018-0.93946-1.5508-0.0505-0.06-0.0916-0.1062-0.13672-0.12695zm167.16 4.082c-1.4565 0.02625-2.7753 0.65683-3.7383 1.8613-1.4 1.733-1.7824 3.9138-0.89844 7.7188l0.38281 1.5586c0.676 2.863 0.18661 4.0909-0.65039 5.1719-0.899 1.148-2.924 1.7244-4.877 0.15039-1.354-1.08-2.1605-2.6849-1.3555-4.6699 0.168-0.464 0.45815-0.99381 0.66015-1.2578 0.155-0.185 0.30085-0.39706 0.0899-0.53906-0.152-0.143-0.40408 0.04061-0.70508 0.34961-0.295 0.339-1.416 1.5631-2.377 2.7461-0.364 0.481-0.39983 0.65331-0.17383 1.0703 0.592 1.171 1.4656 2.0759 2.7266 3.0879 1.149 0.937 2.5314 1.7008 4.1484 1.8828 2.4 0.22 4.052-0.89258 5.082-2.1426 1.632-2.079 1.9066-4.3056 0.84961-8.3906l-0.26172-0.93359c-0.696-2.816-0.58706-3.959 0.21094-4.959 1.01-1.306 2.7413-1.4703 4.3613-0.19727 1.413 1.136 1.5293 2.2838 1.5293 2.9688 0 0.929-0.43989 1.6763-0.58789 1.8633-0.219 0.278-0.25875 0.46012-0.0937 0.57812 0.191 0.124 0.39277 0.02302 0.75977-0.45898 1.334-1.707 1.9381-2.2592 2.1641-2.5332 0.1-0.152 0.0754-0.30967-0.0996-0.51367-0.441-0.592-1.185-1.5574-2.584-2.6504-1.513-1.2095-3.106-1.788-4.5625-1.7617zm-183.59 9.2324c-0.0352 0.0074-0.0677 0.03081-0.0977 0.07031-0.081 0.062-0.20083 0.284-0.42383 0.625-0.247 0.346-0.63014 0.83919-1.2441 1.4922l-7.6113 7.9316c-0.631 0.655-1.3943 1.3745-2.0293 1.8945-0.517 0.474-0.91541 0.47486-1.0664 0.63086-0.122 0.118-0.07395 0.30586 0.12305 0.63086 0.143 0.164 1.6068 2.3065 1.9258 2.6055 0.221 0.228 0.35514 0.28381 0.49414 0.13281 0.125-0.12 0.08608-0.25959-0.04492-0.43359-0.101-0.206-0.25095-0.54462-0.37695-1.0156-0.121-0.747 0.22283-1.3144 1.2988-2.5234l2.7812-3.0605 8.2187 7.9023c1.85 1.761 3.4347 3.2967 4.1777 4.1777 0.505 0.638 0.84862 1.1681 0.51562 1.6641-0.122 0.211-0.29989 0.48192-0.58789 0.79492-0.225 0.253-0.24634 0.36233-0.15234 0.48633 0.141 0.112 0.34175 0.0353 0.59375-0.21875 0.769-0.794 1.9275-2.127 2.3555-2.582 0.531-0.569 1.8182-1.7627 3.0762-3.0957 0.214-0.221 0.32306-0.44236 0.16406-0.56836-0.069-0.096-0.24503-0.05522-0.45703 0.17578-0.293 0.3-0.7465 0.70078-1.0625 0.92578-0.644 0.537-1.216 0.22962-1.834-0.23438-0.953-0.745-2.5339-2.2422-4.3809-4.0332l-8.2168-7.8887 2.4902-2.4707c1.766-1.74 2.8204-1.7412 3.3984-1.2832l0.23242 0.16992c0.326 0.295 0.46338 0.34841 0.60938 0.19141 0.105-0.128 0.0361-0.28228-0.12891-0.48828-0.514-0.51-1.8584-1.8966-2.2754-2.3086-0.22125-0.204-0.35933-0.319-0.46484-0.29688zm198.22 2.0293c-0.04-0.000562-0.0769 0.01352-0.10937 0.04102-0.15 0.164-0.0857 0.3292 0.11328 0.5332 0.227 0.229 0.47009 0.49725 0.62109 0.78125 0.35 0.528 0.19608 1.0698-0.41992 1.7578-0.59 0.667-1.1723 1.2029-4.1523 4.1719l-3.4785 3.4512c-1.909 1.896-3.4821 3.4342-4.4121 4.1582-0.616 0.503-1.0749 0.72902-1.5449 0.41602-0.215-0.142-0.50292-0.33723-0.79492-0.61523-0.229-0.259-0.3398-0.29988-0.4668-0.17188-0.125 0.109-0.0598 0.33241 0.19922 0.56641 0.779 0.81 2.0691 1.9832 2.5391 2.4492 0.517 0.534 1.6973 1.8356 2.9883 3.1406 0.195 0.214 0.41659 0.30164 0.55859 0.18164 0.094-0.111 0.0587-0.24928-0.15235-0.48828-0.304-0.298-0.67559-0.77031-0.93359-1.0703-0.496-0.683-0.26783-1.1647 0.20117-1.7637 0.757-0.916 2.3306-2.4561 4.2266-4.3711l3.5098-3.416c2.974-2.955 3.5164-3.5135 4.1894-4.1055 0.724-0.67 1.2242-0.81762 1.8652-0.39062 0.278 0.221 0.43067 0.33402 0.63867 0.54102 0.202 0.189 0.34595 0.28438 0.50195 0.10938 0.106-0.109 0.00096-0.31445-0.24804-0.56445-0.735-0.759-1.9401-1.8673-2.4531-2.3633-0.561-0.553-1.7083-1.8585-2.4883-2.6055-0.21975-0.243-0.378-0.37136-0.49805-0.37305zm11.84 11.766c-0.10188 0.01275-0.22903 0.06525-0.39453 0.15625-0.231 0.096-2.5476 1.2127-2.8926 1.4707-0.235 0.209-0.31422 0.33242-0.19922 0.48242 0.112 0.14 0.26512 0.14069 0.45312 0.05469 0.229-0.107 0.56827-0.20338 1.0723-0.23438 0.72-0.064 1.2393 0.38428 2.2793 1.6133l2.6309 3.2187-8.9961 6.9844c-2.012 1.576-3.7245 2.9022-4.7305 3.5352-0.703 0.432-1.2973 0.65983-1.7383 0.29883-0.201-0.167-0.43745-0.39519-0.68945-0.74219-0.19-0.251-0.33245-0.27431-0.43945-0.19531-0.173 0.108-0.10696 0.32961 0.12304 0.59961 0.668 0.884 1.8006 2.2118 2.1816 2.7168 0.511 0.614 1.5115 2.0458 2.6465 3.5098 0.167 0.221 0.36997 0.33366 0.54297 0.22266 0.115-0.085 0.071-0.2221-0.084-0.4961-0.292-0.314-0.61626-0.81787-0.82226-1.1719-0.4-0.736-0.0387-1.2382 0.52929-1.7832 0.864-0.841 2.5883-2.1709 4.6133-3.7559l9.0234-6.9805 2.043 2.7988c1.49 1.992 1.348 3.0647 0.79102 3.5527l-0.22266 0.22266c-0.316 0.274-0.39458 0.38331-0.26758 0.57031 0.113 0.12 0.29267 0.0796 0.51367-0.0684 0.582-0.458 2.1368-1.5761 2.5898-1.9121 0.347-0.262 0.46908-0.38688 0.33008-0.54688-0.043-0.068-0.23246-0.22476-0.56446-0.50976-0.298-0.284-0.73762-0.7082-1.2656-1.4082l-6.7617-8.6934c-0.569-0.716-1.1875-1.5874-1.6035-2.2734-0.372-0.598-0.33817-0.97939-0.45117-1.1504-0.062-0.071-0.13836-0.09869-0.24023-0.08594zm-231.35 10.111c-0.17962 0.001-0.29333 0.0432-0.36133 0.13672-0.158 0.233-0.02575 0.5536 0.40625 1.3086l9.8906 15.977c0.776 1.276 1.2195 2.26 0.60547 3.377-0.115 0.198-0.31223 0.53542-0.49023 0.73242-0.115 0.182-0.137 0.28935 0 0.40235 0.178 0.133 0.31406 0.0395 0.53906-0.26953 0.851-1.156 1.6963-2.4489 1.8613-2.6699 0.522-0.699 1.3174-1.6113 1.8594-2.3203 0.144-0.238 0.20848-0.41016 0.02148-0.53516-0.122-0.097-0.2153-0.0717-0.4043 0.19532l-0.25977 0.33984c-0.522 0.695-0.96394 0.66205-1.3359 0.37305-0.297-0.199-0.734-0.70442-1.125-1.3574l-2.2949-3.5371c-0.101-0.158-0.12778-0.24052-0.05078-0.35352l3.6934-4.9883c0.072-0.096 0.17436-0.1197 0.31836-0.0957l6.0566 1.7246c0.352 0.078 0.45286 0.40045 0.38086 0.56445-0.149 0.245-0.1823 0.38484-0.0293 0.46484 0.139 0.128 0.3322-0.14953 0.6582-0.51953 1.37-1.761 2.5888-3.3945 3.1758-4.1875 0.618-0.827 0.71434-1.0644 0.52734-1.1914-0.132-0.10299-0.24914-0.0145-0.36914 0.14454-0.22 0.282-0.49345 0.60504-0.81445 0.87304-0.453 0.385-1.2281 0.80383-3.8691 0.17383-4.449-1.112-16.197-4.2773-17.832-4.6543-0.3315-0.07-0.57819-0.10879-0.75781-0.10742zm3.9043 4.0684c0.04838 0.011 0.10239 0.0347 0.15039 0.0547l7.0254 2.0918c0.075 0.025 0.13488 0.0821 0.04687 0.20507l-3.0234 4.1192c-0.087 0.071-0.17491 0.0418-0.25391-0.0332l-3.9375-6.123c-0.089-0.088-0.17105-0.21301-0.12305-0.29101 0.0255-0.032 0.06686-0.0344 0.11524-0.0234zm240.78 4.0137c-0.0398-0.005-0.0785 0.003-0.11328 0.0254-0.165 0.1-0.105 0.29033 0 0.48633 0.159 0.298 0.26621 0.79503 0.28321 1.207 0 0.588-0.24954 1.5564-0.76954 2.6504-0.751 1.573-4.1219 7.9072-4.4219 8.2852-0.516 0.724-0.88736 1.2602-2.1934 2.0312l-1.9727 1.1367c-0.376 0.251-1.3875 0.84947-2.4355 1.3555-0.711 0.376-1.3729 0.4533-1.7539 0.0293-0.175-0.17901-0.39066-0.4333-0.59766-0.7793-0.14-0.265-0.2892-0.32963-0.4082-0.26563-0.207 0.107-0.10583 0.32125 0.0762 0.65625 0.522 0.89 1.5012 2.3479 1.8242 2.9609 0.406 0.64 1.1997 2.1922 2.0977 3.7012 0.173 0.309 0.37834 0.44166 0.52734 0.34766 0.122-0.063 0.12266-0.22014-0.0273-0.49414-0.199-0.308-0.466-0.8861-0.625-1.2461-0.308-0.773 0.0879-1.287 0.75586-1.75 0.971-0.669 1.9567-1.2596 2.3457-1.4726l1.9707-1.1562c0.788-0.465 1.5286-0.9055 2.5996-1.0625 1.297-0.164 8.8786-0.14325 10.309 0.0937 0.954 0.152 1.3907 0.23433 1.9277 0.61133 0.393 0.238 0.77797 0.6409 0.91797 0.8789 0.153 0.275 0.32586 0.40817 0.50586 0.32617 0.142-0.1 0.0726-0.29745-0.0664-0.56445-0.254-0.442-1.2586-1.9774-1.5586-2.5254-0.429-0.687-0.80697-1.5015-1.293-2.2715-0.162-0.289-0.26259-0.38307-0.43359-0.28907-0.153 0.085-0.0575 0.33708 0.0215 0.58008 0.124 0.466-0.0804 0.71052-0.31641 0.85352-0.295 0.173-0.78473 0.32095-1.4277 0.37695-0.946 0.121-7.9931 0.20606-8.7031 0.28906 0.451-0.77 4.237-7.5174 4.748-8.2734 0.251-0.36 0.47735-0.66849 0.65235-0.77149 0.2-0.086 0.45062-0.0851 0.64062 0.0879 0.294 0.315 0.41941 0.44677 0.56641 0.38477 0.153-0.113 0.153-0.25196 0-0.50196-0.618-1.066-1.2781-2.0197-1.5781-2.5137-0.452-0.805-1.4562-2.6315-1.7012-3.0625-0.11775-0.2145-0.25361-0.34192-0.37305-0.35547zm-252.39 3.3652c-0.09512-0.016-0.15653 0.0153-0.20703 0.0937-0.065 0.092-0.11962 0.31265-0.26562 0.72265-0.153 0.4-0.38241 0.95243-0.81641 1.7324l-5.4473 9.5527c-0.445 0.801-1.0239 1.6817-1.5059 2.3457-0.381 0.588-0.76672 0.69482-0.88672 0.88282-0.072 0.123 0.02473 0.29278 0.30274 0.55078 0.156 0.142 2.0922 1.8599 2.4902 2.0879 0.285 0.146 0.41072 0.165 0.51172 0 0.075-0.151 0.02319-0.28397-0.13281-0.41797-0.158-0.167-0.38733-0.45658-0.61133-0.89258-0.314-0.675-0.11781-1.33 0.61719-2.748l1.9746-3.6699 9.8828 5.6543c2.204 1.261 4.1193 2.3479 5.0703 3.0469 0.649 0.475 1.1025 0.93899 0.93555 1.459-0.082 0.25-0.18558 0.55869-0.39258 0.92969-0.197 0.284-0.15264 0.41514-0.05664 0.49414 0.175 0.081 0.34783-0.0339 0.54883-0.33789 0.527-0.984 1.312-2.5439 1.625-3.0859 0.398-0.685 1.3526-2.1609 2.2656-3.7559 0.135-0.277 0.16467-0.49761 0.01367-0.59961-0.108-0.058-0.28334 0.00058-0.40234 0.26758-0.225 0.363-0.59141 0.8785-0.81641 1.1875-0.521 0.646-1.1295 0.52184-1.8535 0.21484-1.106-0.494-2.9964-1.5683-5.2324-2.8203l-9.875-5.6699 1.791-2.9824c1.277-2.118 2.3373-2.3858 2.9883-2.0938l0.2793 0.14843c0.374 0.174 0.51886 0.21263 0.63086 0.0156 0.084-0.164-0.03486-0.28908-0.25586-0.45508-0.633-0.357-2.2658-1.3799-2.7578-1.6719-0.187-0.10649-0.31698-0.16954-0.41211-0.18554zm-12.348 23.768c-0.11869 0.00061-0.22059 0.0991-0.33984 0.24609-0.462 0.576-1.1681 1.5767-1.8711 3.2227-1.526 3.549-0.51803 6.7642 2.293 7.9512 2.08 0.899 4.2807 0.68575 7.6777-1.1562l1.4219-0.79688c2.572-1.43 3.9085-1.3008 5.1445-0.75976 1.346 0.572 2.4492 2.3759 1.4492 4.6699-0.678 1.59-1.9914 2.7866-4.1504 2.5566-0.468-0.062-1.0562-0.18589-1.4082-0.33789-0.17-0.083-0.42244-0.15183-0.52344 0.0762-0.087 0.199 0.15444 0.40136 0.52344 0.56836 0.395 0.217 1.9037 0.9725 3.3027 1.5625 0.56 0.253 0.71026 0.22972 1.0723-0.11328 0.949-0.884 1.6179-1.9657 2.2559-3.4277 0.586-1.353 0.95298-2.8805 0.70898-4.5195-0.412-2.356-1.9593-3.6681-3.4473-4.2891-2.405-1.048-4.6348-0.71328-8.3008 1.3867l-0.83398 0.48047c-2.503 1.438-3.6481 1.6587-4.8301 1.1387-1.557-0.655-2.1434-2.2851-1.3574-4.1641 0.733-1.646 1.8006-2.0717 2.4766-2.2207 0.871-0.27601 1.7321-0.0714 1.9551 0.0566 0.302 0.116 0.50527 0.0924 0.57227-0.0566 0.084-0.22801-0.06653-0.40286-0.64453-0.63086-1.983-0.853-2.6805-1.2622-3.0215-1.4082-0.04475-0.0233-0.08544-0.0354-0.125-0.0352zm260.2 1.5879c-0.3692 0.0293-0.71514 0.14798-0.94726 0.38086-0.254 0.252 0.21107 1.2768-0.79493 2.2988-0.426 0.41-1.0554 0.76483-2.0644 1.0488-0.118 0.059-0.35908 0.0642-0.45508 0.16016-0.093 0.078-0.0693 0.27512-0.0312 0.32812 0.11 0.087 0.29658 0.0645 0.51758 0.0645 1.306-0.064 3.0318-0.63946 3.7988-0.93946 0.394-0.171 0.88631-0.46057 1.0703-0.64257 0.195-0.197 0.39188-0.5766 0.54688-1.3086 0.112-0.6 0.14804-0.73139-0.002-0.90039-0.34062-0.33875-1.0233-0.53913-1.6387-0.49023zm20.549 9.0059c-0.53117 0.0159-1.069 0.12303-1.6035 0.32421-2.111 0.796-3.5632 2.4576-4.7422 6.1406l-0.46289 1.5566c-0.898 2.809-1.9553 3.632-3.1973 4.127-1.401 0.503-3.4348-0.0392-4.3008-2.3652-0.599-1.64-0.49681-3.4385 1.2422-4.7285 0.398-0.294 0.88047-0.61565 1.2305-0.72265 0.219-0.089 0.44189-0.19936 0.33789-0.44336-0.081-0.187-0.3953-0.17111-0.7793-0.0371-0.442 0.119-2.0148 0.58886-3.4688 1.1309-0.57 0.233-0.66736 0.3545-0.69336 0.8125-0.075 1.313 0.19109 2.5516 0.74609 4.0566 0.502 1.396 1.308 2.7482 2.625 3.7422 1.915 1.416 3.9414 1.3237 5.4434 0.76172 2.453-0.92301 3.8361-2.727 5.0371-6.748l0.26758-0.92188c0.829-2.794 1.509-3.7149 2.707-4.1719 1.565-0.576 3.118 0.16665 3.832 2.0976 0.673 1.69 0.14753 2.7287-0.23047 3.3047-0.462 0.82-1.2013 1.2363-1.4453 1.3223-0.314 0.104-0.43937 0.24259-0.35937 0.43359 0.064 0.216 0.29695 0.216 0.87695 0 2.034-0.768 2.8214-0.93722 3.1484-1.0742 0.209-0.052 0.2365-0.21575 0.1875-0.46875-0.063-0.74-0.20071-1.9395-0.84571-3.6445-1.0888-2.9266-3.251-4.5532-5.5527-4.4844zm-11.305 19.064c-0.03-0.004-0.0653-0.00013-0.10351 0.0156-0.208 0.039-0.23849 0.21746-0.14649 0.56446 0.373 1.395 0.83802 2.8682 0.91602 3.1582 0.207 0.844 0.42281 2.0078 0.63281 2.8828 0.102 0.274 0.19158 0.43482 0.39258 0.38282 0.166-0.037 0.20751-0.1208 0.10351-0.4668l-0.10351-0.41406c-0.188-0.809 0.0921-1.1372 0.58008-1.2832 0.326-0.079 0.98818-0.11857 1.7422-0.0176l4.2031 0.49219c0.186 0 0.24997 0.0229 0.29297 0.17188l1.5215 5.998c0.067 0.127-0.002 0.2235-0.10156 0.3125l-5.1348 3.6211c-0.291 0.214-0.58331 0.087-0.69531-0.082-0.087-0.25-0.17512-0.36008-0.32812-0.33008-0.186 0.079-0.11144 0.39309-0.0234 0.87109 0.505 2.16 1.0097 4.1382 1.2617 5.1172 0.252 0.983 0.37936 1.2014 0.56836 1.1504 0.223-0.064 0.18995-0.19934 0.12695-0.40234-0.079-0.317-0.12634-0.73339-0.15234-1.1504-0.041-0.606 0.15454-1.4838 2.3105-3.1348 3.654-2.771 13.53-9.8967 14.824-10.93 0.549-0.428 0.75199-0.64562 0.70899-0.89062-0.096-0.267-0.39497-0.35694-1.293-0.46094l-18.621-2.4102c-1.492-0.19-2.5477-0.48082-3.0137-1.6738-0.091-0.214-0.21739-0.57132-0.27539-0.82032-0.0465-0.162-0.1034-0.25925-0.19336-0.27148zm-260.39 3.0078c-0.10617 0.0288-0.1515 0.1415-0.1875 0.3125-0.095 0.323-0.21891 0.72028-0.37891 1.1133-0.285 0.527-0.8252 1.2014-3.5332 1.6504-4.512 0.734-16.574 2.4101-18.203 2.7031-0.689 0.101-0.98102 0.22189-1.041 0.46289-0.043 0.277 0.20062 0.47067 0.89062 1.0137l15.32 10.873c1.229 0.88 2.021 1.602 1.875 2.877-0.013 0.222-0.06909 0.60519-0.12109 0.86719-0.05 0.199-0.02291 0.3297 0.12109 0.3457 0.221 0.063 0.29848-0.08 0.39648-0.45703 0.338-1.376 0.61331-2.8974 0.69531-3.1894 0.199-0.839 0.58134-1.9691 0.77734-2.8301 0.051-0.293 0.05108-0.46606-0.16992-0.53906-0.144-0.04-0.22045 0.0443-0.31445 0.36132l-0.0957 0.40235c-0.199 0.844-0.61833 1.0079-1.1113 0.88086-0.297-0.085-0.9202-0.36941-1.5332-0.81641l-3.5215-2.3613c-0.132-0.107-0.17744-0.16878-0.14844-0.30078l1.4453-6.0312c0.058-0.144 0.10262-0.21333 0.26562-0.23633l6.2402-0.77148c0.358-0.058 0.55274 0.19481 0.55274 0.38281-0.031 0.292 0.0011 0.40294 0.16406 0.46094 0.199 0.045 0.27392-0.29663 0.41992-0.76562 0.565-2.149 1.0318-4.1017 1.2578-5.0977 0.259-0.988 0.25841-1.2596 0.06641-1.3106-0.05075-0.0102-0.09352-0.01-0.12891 0zm270.55 2.4941 7.252 0.79492c0.091 0 0.2643 0.001 0.2793 0.0801 0.012 0.085-0.10303 0.14813-0.20703 0.20313l-6.0274 4.1348c-0.074 0.054-0.17722 0.0332-0.19921-0.0918l-1.2676-4.957c-0.032-0.114 0.0409-0.16407 0.16992-0.16407zm-280.98 4.8594c0.072-0.016 0.16444 0.0229 0.14844 0.17187l-1.2051 4.9707c-0.027 0.103-0.1247 0.10636-0.2207 0.0684l-6.0508-4.0879c-0.093-0.067-0.21289-0.13951-0.21289-0.22851 0.028-0.086 0.17497-0.0703 0.29297-0.0703l7.248-0.82422zm288.9 12.79c-0.6169-0.0124-1.1727 0.0266-1.6367 0.0899-2.669 0.363-5.6599 1.4795-7.6719 4.5195-1.828 2.796-2.2202 6.0745-1.7012 9.8535 0.234 1.751 0.72168 3.8275 1.3047 4.8555 0.274 0.451 0.40396 0.54547 0.91796 0.60547 0.956 0.16 3.3979 0.16028 3.7109 0.11328 0.226-0.01 0.42391-0.11264 0.37891-0.30664-0.005-0.214-0.13103-0.26262-0.58203-0.26562-0.518-0.048-1.3667-0.30089-1.9707-0.71289-1.398-0.925-1.8501-2.3723-2.2031-4.8203-0.522-3.683 2.054-9.1001 8.584-9.9961 2.695-0.372 5.3708-0.19959 7.5078 1.5664 1.251 1.056 2.0741 2.5369 2.4121 4.9199 0.344 2.545-0.12245 4.7849-0.93945 5.8379-0.612 0.785-1.5572 1.2631-2.4062 1.4121-0.361 0.039-0.58594 0.14142-0.58594 0.35742 0.061 0.225 0.29813 0.27461 0.70313 0.22461 0.563-0.009 2.0682-0.22578 2.9902-0.30078 0.973-0.09 1.3027-0.0584 1.5137-0.0664 0.19201-0.022 0.30411-0.15984 0.28711-0.46484-0.035-0.835 0.10547-1.7497 0.10547-2.8027 0-1.298-0.043-2.3569-0.29101-4.0469-0.541-4.097-2.0057-6.549-4.0957-8.291-2.085-1.7392-4.4813-2.2441-6.332-2.2812zm-304.33 2.584c-0.149-0.022-0.25188 0.17501-0.29688 0.54101-0.117 1.048-0.29216 2.6941-0.41016 3.3711-0.098 0.795-0.42675 2.5125-0.59375 3.5605-0.05 0.442-0.02047 0.66469 0.14453 0.67969 0.218 0.039 0.29717-0.10967 0.32617-0.38867 0.044-0.32 0.12381-0.69338 0.25781-0.98438 0.225-0.568 0.74788-0.77521 1.6719-0.69921 0.882 0.069 1.6647 0.17548 5.8457 0.77148l4.8477 0.70898c2.67 0.388 4.8107 0.70214 5.9727 0.99415 0.785 0.214 1.216 0.42128 1.25 0.98828 0 0.262 0.0298 0.6019-0.0332 1.0039-0.042 0.319 0.0072 0.46433 0.15625 0.48633 0.196 0.019 0.29414-0.16772 0.36914-0.51172 0.151-1.103 0.29686-2.8345 0.38086-3.4805 0.11-0.741 0.44998-2.4604 0.70898-4.2734 0.052-0.302 0.000875-0.54297-0.20312-0.54297-0.116-0.054-0.22658 0.0743-0.26758 0.40234-0.049 0.407-0.22622 0.99895-0.32422 1.377-0.231 0.809-0.74105 0.91868-1.498 0.88868-1.21-0.043-3.376-0.37105-6.041-0.74805l-4.8477-0.67578c-4.165-0.616-4.9394-0.72802-5.8184-0.91602-0.936-0.179-1.3761-0.46919-1.4121-1.2422 0-0.333-0.000844-0.56607 0.03516-0.83007 0.043-0.29-0.000703-0.45547-0.2207-0.48047zm-2.2988 16.879c-0.23 0-0.26953 0.23899-0.26953 0.58399-0.057 1.389-0.01953 2.4201-0.01953 2.7461-0.014 0.582-0.14922 1.9183-0.19922 3.3613-0.026 0.39-0.000296 0.71652 0.2207 0.72852 0.163 0 0.25976-0.11469 0.25976-0.42969 0.009-0.389 0.03708-1.0694 0.20508-1.4824 0.307-0.635 0.86906-0.87385 2.5391-0.83985l12.5 0.16797-0.0293 0.11328c-0.443 0.465-4.5884 4.0783-6.5254 5.9043-4.191 3.899-8.8821 7.9612-9.2461 8.2852-0.491 0.447-0.85767 0.69937-0.88867 0.98437 0 0.278 0.37059 0.37025 0.93359 0.40625l16.418 0.83008c2.408 0.135 3.228 0.25119 3.418 0.99219 0.103 0.386 0.10217 0.8899 0.07617 1.2539 0 0.289 0.07856 0.44532 0.22656 0.44532 0.256-0.00001 0.26502-0.23194 0.29102-0.58594 0.06-1.45 0.02873-2.7517 0.05273-3.0117 0-0.519 0.10627-1.6379 0.19727-3.4219 0-0.402-0.05239-0.65625-0.27539-0.65625-0.146-0.014-0.21875 0.15604-0.21875 0.45703-0.019 0.44001-0.07244 0.98279-0.27344 1.4258-0.194 0.556-0.94138 0.90586-3.1094 0.88086l-11.666-0.11524 0.01758-0.084c0.528-0.482 4.1166-3.4454 7.2266-6.3594 2.947-2.798 6.7133-6.2135 8.4473-7.8965 0.317-0.29 0.6423-0.61464 0.6543-0.93164 0-0.232-0.23747-0.35286-0.85547-0.38086l-17.516-0.94336c-1.527-0.076-2.1087-0.32961-2.3027-1.0996-0.092-0.345-0.09345-0.56875-0.06445-0.84375 0.024-0.328-0.04661-0.48438-0.22461-0.48438zm317.98 6.5547c-0.188 0-0.25196 0.17361-0.25196 0.47461 0.037 0.39 0.00046 0.85731-0.0605 1.0703-0.171 0.927-0.60997 1.1744-1.543 1.2344-0.897 0.066-1.6705 0.0874-5.8945 0.1914l-4.8945 0.0781c-2.55 0.052-4.7434 0.0846-5.9004-0.0254-0.813-0.089-1.4208-0.21853-1.5488-0.76953-0.044-0.244-0.12382-0.58077-0.13282-1.0098 0-0.32-0.10456-0.44078-0.22656-0.42578-0.207 0-0.29162 0.19911-0.26562 0.53711 0.009 1.116 0.1361 2.8795 0.16211 3.3945 0 0.442-0.074 2.4768 0 4.0918 0 0.362 0.0664 0.56197 0.27539 0.54297 0.142 0 0.20898-0.11499 0.20898-0.33399 0-0.324 0.0283-0.92965 0.0703-1.3476 0.102-0.849 0.72039-1.0253 1.5254-1.1113 1.151-0.173 3.3456-0.21463 5.9316-0.26563l0.38868-0.0273c0.162 0 0.21875 0.0934 0.21875 0.23242v2.4336c0 0.17501-0.0174 0.36019-0.19141 0.49219-0.415 0.364-2.2804 1.6763-3.7734 2.8223-2.13 1.589-3.3765 2.682-4.0215 3.875-0.345 0.753-0.48475 1.4362-0.46875 2.9922l0.043 1.8066c-0.013 0.0593-0.0364 0.093-0.043 0.17382-0.138 1.439-0.16541 2.9866-0.19141 3.2676-0.077 0.883-0.27237 2.0553-0.35937 2.9473-0.029 0.297 0.0124 0.46114 0.23242 0.49414 0.156 0 0.25781-0.0646 0.25781-0.39063l0.0254-0.4375c0.096-0.846 0.49052-1.0603 0.97852-1.0273 0.334 0.029 0.97558 0.23531 1.6426 0.57031l3.8125 1.8398c0.16399 0.077 0.22793 0.13034 0.21093 0.27734l-0.55859 6.1738c0 0.139-0.0839 0.2099-0.21094 0.2539l-6.0781 1.6992c-0.314 0.104-0.57575-0.10373-0.59375-0.30273-0.024-0.299-0.0599-0.41174-0.21289-0.42774-0.202-0.005-0.23302 0.33127-0.29102 0.82227-0.264 2.203-0.43102 4.2478-0.54102 5.2188-0.079 1.023-0.0456 1.287 0.1504 1.291 0.2 0.04 0.25057-0.10165 0.26757-0.30665 0.023-0.34499 0.0989-0.76754 0.21094-1.1855 0.202-0.555 0.66714-1.3356 3.2441-2.1426 4.371-1.413 16.048-4.8336 17.639-5.3516 0.65-0.214 0.91574-0.36347 0.92774-0.60547 0.039-0.292-0.26391-0.49025-1.0039-0.90625l-16.805-8.4863c-1.2036-0.59947-2.0536-1.1898-2.2226-2.2676 0.0158-0.0478 0.0351-0.0904 0.0351-0.16211 0-0.226 0.0261-0.49287 0.0781-0.79687 0.075-0.415 0.23922-1.5525 1.8242-3.1465 1.685-1.657 4.1415-3.6376 7.1855-6.1816 2.319 2.773 4.238 3.601 6.291 3.541 1.867-0.023 3.2745-1.1454 3.7715-1.9414 1-1.526 1.1166-3.3831 1.1016-5.1211-0.018-0.862-0.15039-2.9914-0.15039-3.9414-0.021-0.576 0.002-2.3297 0-3.8027 0-0.407-0.0644-0.5918-0.27539-0.5918zm-1.4336 6.0957c0.207 0 0.33444 0.0641 0.39844 0.24414 0.098 0.278 0.11067 0.78661 0.13867 1.4746 0.037 1.643-1.0518 4.2915-5.0078 4.3555-2.268 0.037-3.5751-0.73445-4.2051-1.5644-0.357-0.483-0.47486-0.87303-0.50586-1.957 0-0.691 0.052-1.5222 0.25195-2.1172 0.063-0.192 0.1661-0.25195 0.4961-0.25195l8.4336-0.1836zm-296.98 12.6c-0.149 0.015-0.21236 0.11652-0.19336 0.35352 0.007 0.22 0.0065 0.46911-0.01953 0.78711-0.055 0.412-0.15628 1.5652-1.6133 3.2422-1.572 1.79-3.8697 3.9231-6.7617 6.6621-2.513-2.598-4.4739-3.2836-6.5059-3.1016-1.859 0.166-3.1589 1.3952-3.6289 2.2012-0.886 1.605-0.88705 3.4442-0.74805 5.2012 0.094 0.865 0.35769 2.9656 0.42969 3.8906 0.052 0.583 0.14895 2.327 0.25195 3.791 0.014 0.443 0.09897 0.62647 0.29297 0.60547 0.202-0.029 0.2427-0.18877 0.2207-0.50977-0.026-0.376-0.05053-0.84117-0.01953-1.0762 0.125-0.94 0.53319-1.1829 1.4922-1.3379 0.864-0.114 1.6298-0.20655 5.8438-0.56055l4.8535-0.43945c2.585-0.216 4.7417-0.40314 5.9297-0.36914 0.796 0.028 1.4277 0.12587 1.5977 0.67187 0.078 0.251 0.15231 0.55233 0.19531 0.98633 0.007 0.321 0.12605 0.44274 0.24805 0.42774 0.197-0.017 0.27623-0.22022 0.24023-0.57422-0.101-1.114-0.33153-2.85-0.39453-3.373-0.042-0.424-0.10625-2.4648-0.28125-4.0938-0.01-0.337-0.11064-0.53667-0.30664-0.51367-0.139 0.024-0.22845 0.13484-0.18945 0.33984 0.024 0.344 0.024 0.96214 0 1.3691-0.039 0.84-0.62878 1.0806-1.4258 1.2246-1.165 0.235-3.328 0.42539-5.916 0.65039l-0.38281 0.041c-0.154 0.005-0.21152-0.091-0.22852-0.20703l-0.16211-2.4082c-0.012-0.201-0.00089-0.35348 0.16211-0.52148 0.366-0.396 2.1303-1.8343 3.5703-3.0703 1.967-1.745 3.1968-2.9025 3.7188-4.1465 0.333-0.757 0.41553-1.4575 0.26953-3.0195l-0.23242-2.6113c-0.035-0.346-0.10264-0.53272-0.30664-0.51172zm286.03 10.55c0.0362-0.0141 0.0839-0.008 0.13086 0.0215l6.5996 3.1524c0.095 0.026 0.22461 0.0915 0.22461 0.1875-0.024 0.081-0.13053 0.0825-0.26953 0.10547l-7.041 1.8633c-0.096 0.043-0.1872 0.00033-0.1582-0.13867l0.45313-5.082c0-0.0595 0.0243-0.0953 0.0605-0.10937zm-298.65 0.49219c1.7852 0.01 2.9013 0.63201 3.498 1.3066 0.388 0.469 0.52986 0.79487 0.63086 1.9219 0.055 0.678 0.05444 1.5279-0.10156 2.1309-0.059 0.189-0.16447 0.24578-0.48047 0.30078l-8.3984 0.70899c-0.215 0.035-0.34811-0.025-0.41211-0.20703-0.096-0.275-0.1777-0.75989-0.2207-1.4629-0.153-1.613 0.73073-4.3281 4.6777-4.6641 0.28275-0.0252 0.55161-0.0365 0.80664-0.0352zm288.87 15.488c-0.249-0.05-0.35339 0.13878-0.40039 0.42578-0.196 0.86-0.4172 2.1814-0.5332 2.6894-0.104 0.503-0.4537 1.6999-0.7207 2.8359-0.095 0.421-0.0944 0.65642 0.14257 0.73242 0.134 0.011 0.24011-0.16176 0.28711-0.38476 0.066-0.263 0.152-0.63575 0.375-1.0938 0.231-0.44 0.56789-0.73996 1.0879-0.62696 0.392 0.097 0.76924 0.18647 1.2402 0.35547l10.455 3.8574-0.0254 0.11524c-2.239 0.491-6.0131 1.338-6.6621 1.457-0.817 0.142-5.447 1.3627-6.834 1.7207-0.895 0.255-1.5321 0.40253-1.5781 0.64453-0.047 0.234 0.17673 0.43961 1.3027 1.3496l10.984 8.6875-0.0625 0.10352-12.271-1.0566c-0.776-0.093-1.1254-0.24058-1.1504-0.39258-0.015-0.23-0.10061-0.35167-0.22461-0.38867-0.163-0.024-0.2648 0.10889-0.4668 0.71289-0.329 1.064-1.254 4.7915-1.418 5.4785-0.096 0.383-0.0959 0.71886 0.16406 0.75586 0.153 0.049 0.21934-0.13609 0.27734-0.37109 0.066-0.357 0.23949-0.90577 0.64649-1.6348 0.424-0.745 1.2591-0.84512 3.0391-0.70312l17.293 1.3301c0.583 0.04 0.88998-0.0709 0.95898-0.29688 0.048-0.254-0.14162-0.44219-0.51562-0.74219l-13.789-10.881 16.93-3.9375c0.794-0.191 0.95067-0.33329 1.0137-0.52929 0.06-0.243-0.13928-0.45735-0.61328-0.65235l-17.041-6.6602c-0.895-0.35-1.8906-0.78961-1.8906-1.5996 0-0.419 0.0388-0.60617 0.0918-0.82617 0.046-0.26 0.0352-0.45961-0.0918-0.47461zm-281.84 2.8027c-0.757 0.0249-1.5287 0.11999-2.3047 0.28711-6.223 1.352-9.2511 6.4158-7.7891 13.174 1.763 8.133 8.4174 9.9003 13.068 8.9043 4.8-1.05 9.9575-5.4523 8.2695-13.236-1.3038-6.0384-5.9452-9.3028-11.244-9.1289zm3.3262 3.4941c4.6788 0.18182 5.9628 3.2393 6.3008 4.7774 1.155 5.21-2.6563 9.3104-8.3203 10.523-6.757 1.464-9.2746-1.7163-9.9336-4.8223-0.961-4.481 2.0426-8.7748 8.1406-10.092 1.4713-0.31837 2.7328-0.42867 3.8125-0.38672zm270.24 25.875c-0.12802 0.0319-0.23211 0.19181-0.31836 0.44531-0.199 0.50101-0.39247 1.2163-0.60547 1.8223-0.22 0.633-0.41067 1.1952-0.51367 1.4922-0.305 0.769-0.61899 1.582-1.084 2.668-0.448 1.101-1.0338 2.5285-1.7578 4.4785-0.365 0.987-0.45389 1.2334 0.16211 1.6504 0.481 0.331 2.1682 1.2019 2.7812 1.4219 0.245 0.105 0.46511 0.16226 0.53711-0.0527 0.078-0.168-0.033-0.25397-0.29102-0.41797-0.997-0.579-1.434-1.0918-1.502-1.8828-0.066-0.792 0.34165-1.8976 0.59765-2.5586 0.983-2.649 1.5379-2.9519 3.3379-2.3359 0.77201 0.277 3.1668 1.1799 4.0508 1.5059l2.0605 0.75391c0.139 0.043 0.24971 0.1249 0.22071 0.2539-0.269 0.628-1.2328 3.1918-1.4668 3.6738-0.459 0.931-1.0036 1.156-1.5566 1.082-0.365-0.05-0.71875-0.16118-0.96875-0.24219-0.117-0.049-0.26322-0.034-0.32422 0.16797-0.096 0.203 0.20634 0.32139 0.40234 0.40039 0.171 0.067 1.2056 0.53368 1.7266 0.76368 1.273 0.575 1.6405 0.83739 1.8105 0.90039 0.156 0.039 0.2353 0.001 0.2793-0.0937 0.052-0.16-0.0425-0.30955-0.1875-0.56055-0.19-0.338-0.11255-0.75372 0.0645-1.3867 0.176-0.633 1.275-3.6486 1.498-4.1856 0.041-0.168 0.14989-0.16484 0.33789-0.0898l6.6035 2.4473c0.181 0.069 0.22931 0.1342 0.19531 0.2832-0.196 0.512-1.2662 3.2435-1.4922 3.6445-0.613 1.245-1.0021 1.3945-1.5781 1.3945-0.342 0.034-0.80943-0.11278-0.98243-0.17578-0.234-0.092-0.39207-0.0922-0.45507 0.0918-0.066 0.178 0.0612 0.28814 0.20117 0.36914 0.301 0.165 1.421 0.64672 1.666 0.76172 1.184 0.522 1.4209 0.77293 1.6289 0.83593 0.137 0.061 0.23325 0.0739 0.28125-0.0801 0.041-0.136 0.032-0.30246 0.041-0.43946 0.039-0.217 0.13081-0.6615 0.25781-1.1875 0.147-0.488 2.0616-5.6777 2.3906-6.5117 0.131-0.376 0.36649-0.96462 0.64649-1.6406 0.266-0.629 0.55464-1.3768 0.80664-2.0918 0.138-0.395 0.17328-0.5772-0.0117-0.6582-0.191-0.076-0.29425 0.0814-0.40625 0.35742-0.122 0.351-0.31317 0.79124-0.45117 0.99024-0.509 0.788-1.0018 0.83936-1.8828 0.56835-0.87-0.245-1.6126-0.52818-5.5606-1.9922l-4.584-1.707c-2.411-0.863-4.4442-1.6181-5.4922-2.1641-0.714-0.397-1.2509-0.73115-1.1699-1.2852 0.052-0.242 0.0916-0.57914 0.26563-0.99414 0.102-0.303 0.0527-0.41752-0.0723-0.47852-0.048-0.0195-0.094-0.0223-0.13671-0.0117zm-266.09 0.0801c-0.10538 0.003-0.22761 0.0483-0.34961 0.0898-0.165 0.062-1.4264 0.43083-1.9434 0.54883-0.846 0.211-1.5552 0.29996-1.6992 0.37696-0.18 0.04-0.2285 0.12146-0.1875 0.23046 0.062 0.142 0.18795 0.15619 0.37695 0.24219 0.424 0.13 0.66319 0.46813 0.86719 0.95313 0.161 0.375 0.26855 0.73145 0.43555 1.1894l1.2051 3.3379c0.036 0.16-0.01073 0.21372-0.17774 0.26172l-6.5605 2.2871c-0.273 0.084-0.39341 0.0515-0.44141-0.10352l-1.3301-4.0625c-0.328-1.01-0.13378-1.6969 0.19922-2.0039 0.292-0.302 0.71897-0.42963 0.91797-0.51563 0.282-0.121 0.39484-0.21644 0.33984-0.39844-0.079-0.182-0.24822-0.18253-0.44922-0.14453-0.346 0.074-1.9037 0.54314-2.1797 0.61914-0.709 0.138-1.0775 0.13518-1.2695 0.20118-0.124 0.038-0.22188 0.1609-0.17188 0.2539 0.048 0.144 0.22022 0.23405 0.32422 0.37305 0.17 0.24 0.26828 0.54216 0.48828 1.0352 0.211 0.59399 2.0668 5.9137 2.4258 6.9277 0.112 0.357 0.31581 0.96039 0.50781 1.6504 0.244 0.697 0.47394 1.4613 0.71094 2.1543 0.146 0.382 0.28247 0.58081 0.48047 0.50781 0.154-0.065 0.1535-0.2532 0.0625-0.5332-0.155-0.36-0.26034-0.81535-0.27734-1.0274-0.12-0.952 0.21461-1.2933 1.0996-1.6543 0.812-0.356 1.5432-0.62196 5.5332-2.002l4.625-1.6074c2.521-0.868 4.4631-1.5636 5.6211-1.8086 0.815-0.168 1.4209-0.22686 1.7129 0.24414 0.125 0.234 0.30269 0.53092 0.42969 0.91992 0.099 0.281 0.22009 0.36659 0.37109 0.30859 0.194-0.043 0.19483-0.25981 0.04883-0.63281-0.326-1.008-1.0078-2.6167-1.2148-3.3047-0.259-0.687-0.75208-2.3659-1.3301-4.0059-0.139-0.396-0.27708-0.546-0.45508-0.5-0.143 0.034-0.18278 0.1843-0.05078 0.5293 0.106 0.355 0.27656 0.97266 0.35156 1.3477 0.155 0.823-0.34984 1.1732-1.0898 1.5332-1.057 0.488-3.0462 1.1978-5.5332 2.0488l-2.1367 0.74414c-0.179 0.079-0.24102 0.0361-0.29102-0.0859-0.176-0.453-1.135-3.2262-1.291-3.9102-0.179-0.86599 0.15556-1.4041 0.47656-1.6641 0.302-0.203 0.58753-0.37745 0.76953-0.43945 0.168-0.08 0.33597-0.19384 0.29297-0.33984-0.0505-0.133-0.13876-0.1745-0.24414-0.17188zm14.377 15.016c-0.04464-0.007-0.09047 0.00064-0.13672 0.0254-0.125 0.05-0.13258 0.21514-0.01758 0.49414 0.19 0.375 0.382 0.94545 0.5 1.3144 0.234 0.799-0.11748 1.196-0.77148 1.584-1.037 0.585-3.0515 1.5134-5.4805 2.6524l-4.4414 2.0254c-3.832 1.764-4.5418 2.0862-5.3848 2.4102-0.908 0.336-1.4446 0.33523-1.8496-0.25977-0.196-0.302-0.31841-0.48361-0.44141-0.72461-0.127-0.275-0.23483-0.39778-0.42383-0.30078-0.165 0.062-0.1148 0.30109 0.0332 0.62109 0.441 0.966 1.1986 2.4287 1.4746 3.0547 0.346 0.718 0.98303 2.347 1.457 3.332 0.168 0.377 0.31694 0.55909 0.46094 0.49609 0.201-0.10099 0.17836-0.28806 0.06836-0.53906-0.144-0.294-0.26364-0.61036-0.30664-0.94336-0.13-0.61 0.19391-1.0529 1.0039-1.5059 0.79-0.419 1.4852-0.75404 5.3262-2.498l4.4648-2.0391c2.423-1.126 4.4257-2.0443 5.5547-2.4023 0.772-0.271 1.241-0.30775 1.582 0.15625 0.153 0.201 0.36062 0.46533 0.51562 0.86133 0.166 0.291 0.26948 0.37701 0.39648 0.29101 0.167-0.079 0.16748-0.26728 0.02148-0.61328-0.457-1.003-1.2757-2.5588-1.5527-3.1348-0.292-0.698-0.96203-2.3136-1.707-3.9766-0.0885-0.207-0.21178-0.35963-0.3457-0.38086zm245.01 2.873c-0.14541 0.024-0.26416 0.1978-0.37891 0.43555-0.667 1.27-1.2072 2.4693-1.3242 2.6953-0.219 0.463-0.8175 1.4123-1.6875 2.9863-0.167 0.364-0.24487 0.59522-0.0469 0.69922 0.144 0.107 0.2682-0.0359 0.4082-0.29492 0.224-0.403 0.50652-0.85941 0.85352-1.1914 0.44599-0.398 1.2593-0.39106 3.1953 0.58594l10.443 5.1758-0.0234 0.0645c-0.705 0.185-5.2222 1.3121-9.2832 2.5781-3.871 1.221-8.7588 2.6465-11.049 3.4375-0.417 0.128-0.8217 0.28083-0.9707 0.54883-0.12701 0.209 0.0628 0.44246 0.59179 0.73046l15.35 8.4492c1.341 0.757 1.7681 1.224 1.6191 2.002-0.092 0.322-0.20245 0.52376-0.31445 0.75976-0.153 0.301-0.17025 0.49713-0.0312 0.57813 0.22 0.106 0.3452-0.12618 0.5332-0.45118 0.63-1.223 1.057-2.1785 1.207-2.4355 0.257-0.524 0.95424-1.666 1.6152-2.957 0.19-0.346 0.31558-0.63891 0.14258-0.75391-0.151-0.068-0.29036-0.009-0.44336 0.27148-0.185 0.359-0.48699 0.95615-0.83399 1.2442-0.563 0.442-1.1332 0.42625-2.6602-0.34375l-11.15-5.5684 0.0645-0.11719c0.616-0.219 5.8899-1.6653 8.4629-2.4453 5.459-1.728 11.405-3.3261 11.898-3.4551 0.676-0.184 1.0951-0.23081 1.2461-0.50781 0.121-0.252-0.17506-0.49754-0.66406-0.76954l-14.438-7.8945c-2.132-1.152-2.7914-1.6353-2.6524-2.3613 0.089-0.40201 0.31057-0.85983 0.47657-1.1738 0.124-0.254 0.16-0.40519 0-0.49219-0.0553-0.0282-0.10779-0.0373-0.15625-0.0293zm-238.81 10.65c-0.11422-0.003-0.23933 0.0221-0.39258 0.0586-0.82 0.231-2.7106 1.113-2.9766 1.252-0.297 0.185-0.39788 0.28746-0.29688 0.43946 0.103 0.194 0.28648 0.15573 0.52148 0.0527 0.479-0.204 1.3187-0.32508 1.8027-0.20508 0.979 0.219 1.5627 1.1395 2.3027 2.3965 1.098 1.878 1.2668 2.5956 1.1758 3.2246-0.146 0.742-1.806 1.7217-4.873 3.5137l-4.233 2.46c-3.626 2.135-4.2896 2.5187-5.0996 2.9297-0.882 0.432-1.3887 0.48744-1.8867-0.10156-0.216-0.254-0.45442-0.63277-0.60742-0.88477-0.184-0.301-0.31942-0.40964-0.48242-0.30664-0.153 0.083-0.11988 0.29091 0.07813 0.62891 0.559 0.92 1.6394 2.6346 1.9844 3.2266 0.37 0.638 1.1831 2.1972 1.8301 3.3262 0.213 0.353 0.3613 0.50325 0.5293 0.40625 0.161-0.102 0.12556-0.2772-0.02344-0.5332-0.167-0.313-0.31467-0.6168-0.38867-0.8418-0.297-0.896-0.02042-1.3232 0.76758-1.8262 0.733-0.497 1.4141-0.89077 5.0371-3.0098l4.2383-2.4902c2.221-1.282 4.1188-2.3875 5.1758-2.8535 0.764-0.315 1.37-0.48664 1.748-0.0566 0.172 0.183 0.37161 0.43916 0.59961 0.78516 0.167 0.282 0.29569 0.3332 0.42969 0.2832 0.134-0.101 0.10889-0.31528-0.03711-0.61328-0.297-0.498-0.72641-1.0807-1.0664-1.6367-0.343-0.553-0.63164-1.0855-0.80664-1.3555-0.569-0.99-1.0589-1.8534-1.6289-2.9824-0.599-1.082-1.2851-2.3602-2.2891-4.0762-0.55275-0.94425-0.79016-1.1995-1.1328-1.207zm8.5527 14.623c-0.05602-0.0106-0.10575 0.002-0.15625 0.0312-0.15 0.128-0.0918 0.25688 0.0332 0.42188 0.227 0.278 0.42986 0.60591 0.63086 1.0039 0.251 0.552 0.42631 1.4474-0.92969 3.7754-2.28 3.97-8.5999 14.392-9.4199 15.822-0.345 0.613-0.4353 0.90433-0.2793 1.1113 0.158 0.225 0.50361 0.15941 1.3496-0.0586l18.104-5.0137c1.46-0.403 2.5117-0.55586 3.4277 0.36914 0.148 0.142 0.41641 0.43186 0.56641 0.63086 0.122 0.184 0.2449 0.25368 0.3789 0.13868 0.171-0.139 0.10639-0.30713-0.0996-0.57813-0.882-1.158-1.8635-2.3165-2.0605-2.5625-0.517-0.7-1.1777-1.6977-1.7207-2.3887-0.169-0.246-0.33818-0.3478-0.49218-0.2168-0.136 0.101-0.13741 0.19242 0.0586 0.48242l0.2832 0.33008c0.51 0.676 0.34747 1.0856-0.0195 1.3926-0.27 0.203-0.89147 0.4965-1.6055 0.6875l-4.0645 1.2188c-0.182 0.054-0.24161 0.0414-0.34961-0.0586l-3.7598-4.9356c-0.084-0.105-0.084-0.20956 0-0.35156l3.3457-5.3223c0.181-0.322 0.4832-0.32178 0.6582-0.17578 0.198 0.199 0.31892 0.24586 0.41992 0.13086 0.178-0.104-0.01883-0.36402-0.29883-0.79102-1.315-1.817-2.5595-3.4039-3.1465-4.2109-0.46125-0.61125-0.68547-0.85108-0.85352-0.88282zm213.79 3.3457c-0.129-0.002-0.27143 0.11995-0.42968 0.3457-0.649 0.875-1.6064 2.3336-1.9824 2.8496-0.465 0.644-1.5791 2-2.6621 3.498-0.175 0.225-0.23679 0.44145-0.0918 0.56445 0.14 0.091 0.26512 0.009 0.45312-0.22852 0.269-0.33 0.66174-0.78003 0.92774-1.082 0.571-0.595 1.1702-0.36951 1.8652 0.0215 1.022 0.587 2.8143 1.8971 4.8613 3.4121l9.2148 6.7129-2.1758 2.7852c-1.497 1.941-2.5588 2.1135-3.1738 1.7285l-0.25195-0.16406c-0.37-0.231-0.51162-0.27066-0.64062-0.0977-0.089 0.147-0.001 0.28861 0.22265 0.47461 0.597 0.427 2.0812 1.6258 2.5332 1.9688 0.32199 0.234 0.49437 0.33083 0.60937 0.17383 0.077-0.085 0.15512-0.3105 0.32813-0.6875 0.19899-0.38 0.49382-0.92491 1.0488-1.6289l6.4727-8.875c0.519-0.749 1.208-1.5584 1.748-2.1484 0.473-0.542 0.83432-0.61215 0.98632-0.78515 0.093-0.129 0.00054-0.29103-0.23046-0.58203-0.147-0.185-1.8776-2.1065-2.2656-2.3555-0.225-0.178-0.36414-0.20864-0.49414-0.0566-0.086 0.126-0.0382 0.2574 0.0918 0.4414 0.165 0.18 0.32939 0.49341 0.52539 0.94141 0.254 0.713-0.047 1.3193-0.95899 2.6523l-2.3476 3.4141-9.2031-6.7363c-2.039-1.504-3.8197-2.7946-4.6797-3.6016-0.609-0.532-0.98246-1.0299-0.73046-1.5469 0.095-0.246 0.21128-0.53328 0.48828-0.86328 0.199-0.288 0.1764-0.424 0.0664-0.5-0.0398-0.0288-0.082-0.0442-0.125-0.0449zm-214.82 9.4453c0.03737-0.004 0.08231 0.0125 0.13281 0.0645l3.0879 4.084c0.091 0.081 0.01706 0.15431-0.08594 0.19531l-6.9961 2.1094c-0.088 0.044-0.23302 0.078-0.29102 0-0.053-0.047 0.04295-0.14343 0.12695-0.23243l3.9355-6.1562c0.023-0.035 0.05247-0.0602 0.08984-0.0645zm17.012 8.1582c-0.15813 0.01-0.3128 0.0766-0.5293 0.20508-0.856 0.482-2.7674 1.9777-2.9824 2.2207-0.175 0.176-0.27305 0.34996-0.12305 0.50196 0.151 0.151 0.27248 0.10245 0.64648-0.18555 0.426-0.256 1.2574-0.58348 1.9434-0.64648 1.68-0.154 2.9592 0.69415 4.7422 2.4102 2.688 2.598 4.0019 8.4313-0.57812 13.195-1.866 1.938-4.067 3.4844-6.834 3.4024-1.637-0.046-3.1916-0.71149-4.9355-2.3965-1.838-1.77-2.8923-3.7912-2.8633-5.1562 0-0.987 0.40814-1.9462 0.99414-2.5742 0.266-0.286 0.3858-0.48077 0.2168-0.63477-0.184-0.186-0.36626-0.0543-0.69726 0.2207-0.417 0.379-1.4473 1.4875-2.1113 2.1055-0.716 0.686-1.0069 0.84905-1.1699 0.99805-0.12 0.133-0.14469 0.30539 0.07031 0.52539 0.53 0.655 0.99997 1.4512 1.668 2.2812 0.81 1.004 1.451 1.7843 2.707 2.9863 2.988 2.874 5.6455 3.9055 8.3535 3.9785 3.618 0.108 6.3059-1.8641 7.6289-3.2031 1.862-1.954 3.504-4.6889 3.207-8.2949-0.297-3.347-2.0201-6.159-4.7441-8.793-1.298-1.241-2.9427-2.5878-4.0547-3.0098-0.234-0.0985-0.39656-0.14622-0.55468-0.13672zm186.82 0.17188c-2.4757 0.0667-5.1151 1.0819-7.5879 3.5547-4.973 4.969-4.5808 11.666-0.0898 16.172 4.479 4.51 10.373 4.3191 15.266-0.54687 5.913-5.906 3.7992-12.445 0.45117-15.818-1.9434-1.9654-4.856-3.4471-8.0391-3.3613zm-1.7285 2.9941c2.6337 0.0459 5.3752 1.3731 7.6719 3.6816 4.88 4.9 3.5396 8.733 1.3066 11.002-3.26 3.195-8.5055 2.9902-12.896-1.4238-5.678-5.679-3.1405-9.5334-1.7695-10.9 1.6551-1.6546 3.6391-2.395 5.6875-2.3594zm-49.414 28.486c-0.125-0.004-0.31452 0.0363-0.60352 0.13281l-9.7695 3.2227c-3.253 1.06-4.0305 0.98034-4.2285 1.0273-0.19 0.081-0.27373 0.24541-0.17773 0.56641 0.104 0.291 0.81622 3.9938 1.1992 5.1328 0.1 0.31 0.17625 0.46153 0.40625 0.39453 0.174-0.079 0.21983-0.232 0.17383-0.5-0.104-0.529-0.0266-1.6375 0.39843-2.1875 0.581-0.712 1.8103-1.2095 2.6953-1.4805l7.9043-2.5859c-1.907 8.428-2.8196 18.72-2.7226 21.938 0 0.542 0.0982 1.0293 0.19922 1.3223 0.098 0.291 0.21748 0.33584 0.52148 0.21484 1.386-0.453 3.4502-2.5102 3.2422-3.1152-0.128-0.404-0.23294-0.59167-0.33594-1.1387-0.841-4.057-0.0724-17.757 1.2676-22.189 0.05-0.16 0.10883-0.43509 0.0488-0.62109-0.032-0.08-0.0937-0.12869-0.21875-0.13281zm-111.86 1.4492c-2.001 0-3.6465 1.6245-3.6465 3.6445 0 2.008 1.6455 3.6484 3.6465 3.6484 2.013 0 3.6426-1.6394 3.6426-3.6484 0-2.019-1.6296-3.6445-3.6426-3.6445zm136.9 0c-2.031 0-3.6719 1.6245-3.6719 3.6445 0 2.008 1.6409 3.6484 3.6719 3.6484 1.982 0 3.6387-1.6394 3.6387-3.6484 0-2.019-1.6567-3.6445-3.6387-3.6445zm-101.34 1.418c-0.22153 0.006-0.47156 0.0954-0.72656 0.17188-1.328 0.442-8.4596 2.3735-8.5996 2.3965-0.167 0.037-0.3905 0.14164-0.4375 0.30664-0.075 0.212 0.029 0.41197 0.12304 0.41797 0.124 0.058 0.30471 0.049 0.47071 0.043 0.76-0.073 3.4732-0.5085 4.0352-0.3125 0.463 0.155 0.35152 0.519 0.10352 1.25-0.364 1.042-0.76589 2.3507-1.3379 4.0137l-1.5254 4.8516c-0.956 2.947-1.8664 5.5405-2.3984 6.8535-0.42 0.922-0.73548 1.3042-1.7715 1.2012-0.606-0.052-2.1777-0.46731-2.5137-0.57031-0.115-0.047-0.28932 0.00041-0.36132 0.19141-0.046 0.229 0.097 0.36379 0.45703 0.46679 1.94 0.631 4.5513 1.3753 5.2363 1.6113 0.837 0.278 2.7633 1.0085 5.0723 1.7715 0.343 0.094 0.52103 0.095 0.58203-0.125 0.083-0.22-0.0408-0.35482-0.17578-0.38282-0.239-0.079-1.5278-0.60075-1.9258-0.84375-0.934-0.553-0.93545-1.0366-0.68945-2.0566 0.299-1.4 1.1494-3.9731 2.1094-6.9141l1.8496-5.666c1.528-4.673 2.7072-7.6386 2.7852-7.8926 0.091-0.296 0.11961-0.66086-0.15039-0.75586-0.0665-0.0205-0.1371-0.0292-0.21094-0.0274zm49.326 3.7656c-0.315 0.029-0.53039 0.35706-0.77539 0.66406-0.235 0.338-10.451 17.393-10.645 17.684-0.097 0.162-0.36422 0.47314-0.32422 0.86914 0.034 0.353 0.45194 0.44343 0.83594 0.39843l9.8066-1.0625c0.122 1.017 0.3287 2.457 0.3457 3.877 0.041 1.001-0.12398 1.7316-1.334 1.9746-0.485 0.149-1.1718 0.23743-1.4668 0.27343-0.16 0.019-0.23966 0.12803-0.22266 0.33204 0.016 0.249 0.18711 0.28595 0.53711 0.25195 1.747-0.209 3.4794-0.48241 4.3574-0.56641 0.681-0.078 2.7462-0.1949 4.5352-0.3789 0.343-0.05 0.50914-0.15305 0.49414-0.37305-0.052-0.209-0.17361-0.29449-0.34961-0.27149-0.294 0.039-0.97378 0.0631-1.4258 0.0371-1.091-0.129-1.3638-0.69457-1.5508-1.6426-0.277-1.42-0.39253-2.8506-0.51953-3.8926l2.8125-0.29297c0.554-0.05 0.68027-0.19081 0.82226-0.50781 0.17601-0.434 0.36161-1.7563 0.34961-2.0703-0.05-0.249-0.1936-0.36561-0.34961-0.34961-0.18499 0.014-0.55768 0.39466-1.4297 0.47266l-2.4727 0.2793-1.1094-10.402c-0.224-2.085-0.43375-4.3259-0.46875-4.7949-0.046-0.338-0.16313-0.54681-0.45313-0.50781zm-29.127 0.45117c-4.4531-0.10333-7.6449 2.6115-8.0762 6.6465-0.276 2.687 1.269 6.3725 5.875 6.8535 1.634 0.18 3.3219-0.13081 4.3809-1.0078 0.051-0.042 0.17921-0.22852 0.19921-0.35352 0-0.132-0.10095-0.28559-0.25195-0.30859-0.1 0-0.2942 0.14001-0.6582 0.29102-0.441 0.14899-1.081 0.27143-2.209 0.14843-1.093-0.123-4.133-1.6029-3.627-6.5059 0.282-2.696 2.0384-4.5806 4.3574-4.3476 2.434 0.262 4.5811 3.0032 3.9941 8.6582-0.791 7.573-6.3559 12.286-9.8809 13.938-0.181 0.123-0.42226 0.28319-0.44726 0.49219-0.015 0.176 0.15172 0.35828 0.26172 0.36328 0.258 0.04 0.40122 0.0194 0.57422-0.0566 4.165-1.448 12.599-6.2458 13.529-15.217 0.518-4.843-1.9023-8.9832-7.1133-9.5352-0.30762-0.0324-0.61133-0.0517-0.9082-0.0586zm26.617 5.7344h0.0996l1.0625 9.875-7.25 0.75976c0.95199-1.54 5.4559-9.5038 6.0879-10.635z"/></g></g></svg>